SplineFontDB: 3.0
FontName: Oxanium-Regular
FullName: Oxanium Regular
FamilyName: Oxanium
Weight: Regular
Copyright: Copyright 2019 Severin Meyer, with Reserved Font Name Oxanium
Version: 0.000
ItalicAngle: 0
UnderlinePosition: -100
UnderlineWidth: 60
Ascent: 800
Descent: 200
InvalidEm: 0
LayerCount: 2
Layer: 0 1 "Back" 1
Layer: 1 1 "Fore" 0
StyleMap: 0x0040
FSType: 0
OS2Version: 4
OS2_WeightWidthSlopeOnly: 0
OS2_UseTypoMetrics: 1
CreationTime: 1546300800
ModificationTime: 1551949661
PfmFamily: 33
TTFWeight: 400
TTFWidth: 5
LineGap: 250
VLineGap: 0
OS2TypoAscent: 790
OS2TypoAOffset: 0
OS2TypoDescent: -210
OS2TypoDOffset: 0
OS2TypoLinegap: 250
OS2WinAscent: 1000
OS2WinAOffset: 0
OS2WinDescent: 250
OS2WinDOffset: 0
HheadAscent: 790
HheadAOffset: 0
HheadDescent: -210
HheadDOffset: 0
OS2SubXSize: 620
OS2SubYSize: 600
OS2SubXOff: 0
OS2SubYOff: 124
OS2SupXSize: 620
OS2SupYSize: 600
OS2SupXOff: 0
OS2SupYOff: 400
OS2StrikeYSize: 50
OS2StrikeYPos: 250
OS2CapHeight: 690
OS2XHeight: 520
OS2Vendor: '    '
DEI: 91125
LangName: 1033 "" "" "" "" "" "" "" "" "" "Severin Meyer" "" "" "https://sev.dev/fonts/oxanium" "SIL Open Font License 1.1" "http://scripts.sil.org/OFL"
Encoding: Custom
UnicodeInterp: none
NameList: AGL For New Fonts
DisplaySize: -48
AntiAlias: 1
FitToEm: 0
WinInfo: 0 32 12
BeginPrivate: 2
BlueValues 41 [-10 0 520 530 690 700 740 750 1000 1010]
OtherBlues 11 [-210 -200]
EndPrivate
BeginChars: 375 375

StartChar: exclam
Encoding: 3 33 3
Width: 260
Flags: W
LayerCount: 2
Fore
SplineSet
80 0 m 1,0,-1
 80 110 l 1,1,-1
 180 110 l 1,2,-1
 180 0 l 1,3,-1
 80 0 l 1,0,-1
88 210 m 1,4,-1
 88 690 l 1,5,-1
 172 690 l 1,6,-1
 172 210 l 1,7,-1
 88 210 l 1,4,-1
EndSplineSet
EndChar

StartChar: numbersign
Encoding: 5 35 5
Width: 670
Flags: W
LayerCount: 2
Fore
SplineSet
50 190 m 1,0,-1
 50 260 l 1,1,-1
 184 260 l 1,2,-1
 184 430 l 1,3,-1
 50 430 l 1,4,-1
 50 500 l 1,5,-1
 184 500 l 1,6,-1
 184 690 l 1,7,-1
 258 690 l 1,8,-1
 258 500 l 1,9,-1
 412 500 l 1,10,-1
 412 690 l 1,11,-1
 486 690 l 1,12,-1
 486 500 l 1,13,-1
 620 500 l 1,14,-1
 620 430 l 1,15,-1
 486 430 l 1,16,-1
 486 260 l 1,17,-1
 620 260 l 1,18,-1
 620 190 l 1,19,-1
 486 190 l 1,20,-1
 486 0 l 1,21,-1
 412 0 l 1,22,-1
 412 190 l 1,23,-1
 258 190 l 1,24,-1
 258 0 l 1,25,-1
 184 0 l 1,26,-1
 184 190 l 1,27,-1
 50 190 l 1,0,-1
258 260 m 1,28,-1
 412 260 l 1,29,-1
 412 430 l 1,30,-1
 258 430 l 1,31,-1
 258 260 l 1,28,-1
EndSplineSet
EndChar

StartChar: dollar
Encoding: 6 36 6
Width: 578
Flags: W
LayerCount: 2
Fore
SplineSet
69 35 m 1,0,-1
 69 76 l 1,1,-1
 357 76 l 2,2,3
 425 76 425 76 425 144 c 2,4,-1
 425 211 l 2,5,6
 425 268 425 268 374 278 c 2,7,-1
 179 317 l 2,8,9
 69 339 69 339 69 465 c 2,10,-1
 69 507 l 2,11,12
 69 660 69 660 222 660 c 2,13,-1
 254 660 l 1,14,-1
 254 780 l 1,15,-1
 324 780 l 1,16,-1
 324 660 l 1,17,-1
 444 660 l 1,18,-1
 489 625 l 1,19,-1
 489 584 l 1,20,-1
 221 584 l 2,21,22
 153 584 153 584 153 516 c 2,23,-1
 153 459 l 2,24,25
 153 402 153 402 204 392 c 2,26,-1
 399 353 l 2,27,28
 509 331 509 331 509 205 c 2,29,-1
 509 153 l 2,30,31
 509 0 509 0 356 0 c 2,32,-1
 324 0 l 1,33,-1
 324 -120 l 1,34,-1
 254 -120 l 1,35,-1
 254 0 l 1,36,-1
 114 0 l 1,37,-1
 69 35 l 1,0,-1
EndSplineSet
EndChar

StartChar: ampersand
Encoding: 8 38 8
Width: 660
Flags: W
LayerCount: 2
Fore
SplineSet
70 150 m 2,0,-1
 70 256 l 2,1,2
 70 308 70 308 103 336 c 2,3,-1
 145 371 l 1,4,-1
 110 413 l 2,5,6
 90 437 90 437 90 471 c 2,7,-1
 90 540 l 2,8,9
 90 690 90 690 240 690 c 2,10,-1
 430 690 l 1,11,-1
 470 660 l 1,12,-1
 470 620 l 1,13,-1
 240 620 l 2,14,15
 170 620 170 620 170 550 c 2,16,-1
 170 470 l 2,17,18
 170 400 170 400 240 400 c 2,19,-1
 620 400 l 1,20,-1
 620 330 l 1,21,-1
 520 330 l 1,22,-1
 520 0 l 1,23,-1
 220 0 l 2,24,25
 70 0 70 0 70 150 c 2,0,-1
150 140 m 2,26,27
 150 70 150 70 220 70 c 2,28,-1
 440 70 l 1,29,-1
 440 330 l 1,30,-1
 220 330 l 2,31,32
 150 330 150 330 150 260 c 2,33,-1
 150 140 l 2,26,27
EndSplineSet
EndChar

StartChar: quotesingle
Encoding: 9 39 9
Width: 214
Flags: W
LayerCount: 2
Fore
SplineSet
70 490 m 1,0,-1
 70 740 l 1,1,-1
 144 740 l 1,2,-1
 144 490 l 1,3,-1
 70 490 l 1,0,-1
EndSplineSet
EndChar

StartChar: parenleft
Encoding: 10 40 10
Width: 310
Flags: W
LayerCount: 2
Fore
SplineSet
70 290 m 128,-1,1
 70 557 70 557 230 770 c 1,2,-1
 290 724 l 1,3,4
 153 533 153 533 153 290 c 128,-1,5
 153 47 153 47 290 -144 c 1,6,-1
 230 -190 l 1,7,0
 70 23 70 23 70 290 c 128,-1,1
EndSplineSet
EndChar

StartChar: parenright
Encoding: 11 41 11
Width: 310
Flags: W
LayerCount: 2
Fore
SplineSet
20 -144 m 1,0,1
 157 47 157 47 157 290 c 128,-1,2
 157 533 157 533 20 724 c 1,3,-1
 80 770 l 1,4,5
 240 557 240 557 240 290 c 128,-1,6
 240 23 240 23 80 -190 c 1,7,-1
 20 -144 l 1,0,1
EndSplineSet
EndChar

StartChar: asterisk
Encoding: 12 42 12
Width: 500
Flags: W
LayerCount: 2
Fore
SplineSet
41 516 m 1,0,-1
 60 573 l 1,1,-1
 218 525 l 1,2,-1
 218 690 l 1,3,-1
 282 690 l 1,4,-1
 282 525 l 1,5,-1
 440 573 l 1,6,-1
 459 516 l 1,7,-1
 303 463 l 1,8,-1
 398 328 l 1,9,-1
 349 293 l 1,10,-1
 250 423 l 1,11,-1
 151 293 l 1,12,-1
 102 328 l 1,13,-1
 197 463 l 1,14,-1
 41 516 l 1,0,-1
EndSplineSet
EndChar

StartChar: plus
Encoding: 13 43 13
Width: 578
Flags: W
LayerCount: 2
Fore
SplineSet
64 300 m 1,0,-1
 64 370 l 1,1,-1
 252 370 l 1,2,-1
 252 570 l 1,3,-1
 326 570 l 1,4,-1
 326 370 l 1,5,-1
 514 370 l 1,6,-1
 514 300 l 1,7,-1
 326 300 l 1,8,-1
 326 100 l 1,9,-1
 252 100 l 1,10,-1
 252 300 l 1,11,-1
 64 300 l 1,0,-1
EndSplineSet
EndChar

StartChar: comma
Encoding: 14 44 14
Width: 260
Flags: W
LayerCount: 2
Fore
SplineSet
32 -125 m 1,0,-1
 83 110 l 1,1,-1
 173 110 l 1,2,-1
 182 96 l 1,3,-1
 92 -140 l 1,4,-1
 32 -125 l 1,0,-1
EndSplineSet
EndChar

StartChar: hyphen
Encoding: 15 45 15
Width: 360
Flags: W
LayerCount: 2
Fore
SplineSet
40 270 m 1,0,-1
 40 340 l 1,1,-1
 320 340 l 1,2,-1
 320 270 l 1,3,-1
 40 270 l 1,0,-1
EndSplineSet
EndChar

StartChar: period
Encoding: 16 46 16
Width: 260
Flags: W
LayerCount: 2
Fore
SplineSet
80 0 m 1,0,-1
 80 110 l 1,1,-1
 180 110 l 1,2,-1
 180 0 l 1,3,-1
 80 0 l 1,0,-1
EndSplineSet
EndChar

StartChar: slash
Encoding: 17 47 17
Width: 390
Flags: W
LayerCount: 2
Fore
SplineSet
20 -25 m 1,0,-1
 301 740 l 1,1,-1
 370 715 l 1,2,-1
 89 -50 l 1,3,-1
 20 -25 l 1,0,-1
EndSplineSet
EndChar

StartChar: zero
Encoding: 18 48 18
Width: 578
Flags: W
LayerCount: 2
Fore
SplineSet
64 153 m 2,0,-1
 64 537 l 2,1,2
 64 690 64 690 217 690 c 2,3,-1
 361 690 l 2,4,5
 514 690 514 690 514 537 c 2,6,-1
 514 153 l 2,7,8
 514 0 514 0 361 0 c 2,9,-1
 217 0 l 2,10,11
 64 0 64 0 64 153 c 2,0,-1
148 144 m 2,12,13
 148 76 148 76 216 76 c 2,14,-1
 362 76 l 2,15,16
 430 76 430 76 430 144 c 2,17,-1
 430 546 l 2,18,19
 430 614 430 614 362 614 c 2,20,-1
 216 614 l 2,21,22
 148 614 148 614 148 546 c 2,23,-1
 148 144 l 2,12,13
EndSplineSet
EndChar

StartChar: one
Encoding: 19 49 19
Width: 578
Flags: W
LayerCount: 2
Fore
SplineSet
92 0 m 1,0,-1
 92 76 l 1,1,-1
 263 76 l 1,2,-1
 263 614 l 1,3,-1
 127 614 l 1,4,-1
 127 655 l 1,5,-1
 172 690 l 1,6,-1
 347 690 l 1,7,-1
 347 76 l 1,8,-1
 502 76 l 1,9,-1
 502 0 l 1,10,-1
 92 0 l 1,0,-1
EndSplineSet
EndChar

StartChar: two
Encoding: 20 50 20
Width: 578
Flags: W
LayerCount: 2
Fore
SplineSet
64 0 m 1,0,-1
 64 210 l 2,1,2
 64 336 64 336 174 358 c 2,3,-1
 379 399 l 2,4,5
 430 409 430 409 430 466 c 2,6,-1
 430 546 l 2,7,8
 430 614 430 614 362 614 c 2,9,-1
 84 614 l 1,10,-1
 84 655 l 1,11,-1
 129 690 l 1,12,-1
 361 690 l 2,13,14
 514 690 514 690 514 537 c 2,15,-1
 514 472 l 2,16,17
 514 346 514 346 404 324 c 2,18,-1
 199 283 l 2,19,20
 148 273 148 273 148 216 c 2,21,-1
 148 76 l 1,22,-1
 514 76 l 1,23,-1
 514 0 l 1,24,-1
 64 0 l 1,0,-1
EndSplineSet
EndChar

StartChar: three
Encoding: 21 51 21
Width: 578
Flags: W
LayerCount: 2
Fore
SplineSet
74 35 m 1,0,-1
 74 76 l 1,1,-1
 362 76 l 2,2,3
 430 76 430 76 430 144 c 2,4,-1
 430 256 l 2,5,6
 430 324 430 324 362 324 c 2,7,-1
 148 324 l 1,8,-1
 148 400 l 1,9,-1
 362 400 l 2,10,11
 430 400 430 400 430 468 c 2,12,-1
 430 546 l 2,13,14
 430 614 430 614 362 614 c 2,15,-1
 84 614 l 1,16,-1
 84 655 l 1,17,-1
 129 690 l 1,18,-1
 361 690 l 2,19,20
 514 690 514 690 514 537 c 2,21,-1
 514 464 l 2,22,23
 514 424 514 424 489 399 c 2,24,-1
 454 364 l 1,25,-1
 489 329 l 2,26,27
 514 304 514 304 514 264 c 2,28,-1
 514 153 l 2,29,30
 514 0 514 0 361 0 c 2,31,-1
 119 0 l 1,32,-1
 74 35 l 1,0,-1
EndSplineSet
EndChar

StartChar: four
Encoding: 22 52 22
Width: 578
Flags: W
LayerCount: 2
Fore
SplineSet
64 129 m 1,0,-1
 64 199 l 1,1,-1
 295 690 l 1,2,-1
 365 690 l 1,3,-1
 376 670 l 1,4,-1
 157 205 l 1,5,-1
 430 205 l 1,6,-1
 430 430 l 1,7,-1
 514 430 l 1,8,-1
 514 0 l 1,9,-1
 430 0 l 1,10,-1
 430 129 l 1,11,-1
 64 129 l 1,0,-1
EndSplineSet
EndChar

StartChar: five
Encoding: 23 53 23
Width: 578
Flags: W
LayerCount: 2
Fore
SplineSet
54 35 m 1,0,-1
 54 76 l 1,1,-1
 362 76 l 2,2,3
 430 76 430 76 430 144 c 2,4,-1
 430 266 l 2,5,6
 430 334 430 334 362 334 c 2,7,-1
 64 334 l 1,8,-1
 64 690 l 1,9,-1
 484 690 l 1,10,-1
 484 614 l 1,11,-1
 148 614 l 1,12,-1
 148 410 l 1,13,-1
 361 410 l 2,14,15
 514 410 514 410 514 257 c 2,16,-1
 514 153 l 2,17,18
 514 0 514 0 361 0 c 2,19,-1
 99 0 l 1,20,-1
 54 35 l 1,0,-1
EndSplineSet
EndChar

StartChar: six
Encoding: 24 54 24
Width: 578
Flags: W
LayerCount: 2
Fore
SplineSet
64 153 m 2,0,-1
 64 506 l 2,1,2
 64 690 64 690 248 690 c 2,3,-1
 429 690 l 1,4,-1
 474 655 l 1,5,-1
 474 614 l 1,6,-1
 244 614 l 2,7,8
 148 614 148 614 148 518 c 2,9,-1
 148 410 l 1,10,-1
 361 410 l 2,11,12
 514 410 514 410 514 257 c 2,13,-1
 514 153 l 2,14,15
 514 0 514 0 361 0 c 2,16,-1
 217 0 l 2,17,18
 64 0 64 0 64 153 c 2,0,-1
148 144 m 2,19,20
 148 76 148 76 216 76 c 2,21,-1
 362 76 l 2,22,23
 430 76 430 76 430 144 c 2,24,-1
 430 266 l 2,25,26
 430 334 430 334 362 334 c 2,27,-1
 148 334 l 1,28,-1
 148 144 l 2,19,20
EndSplineSet
EndChar

StartChar: seven
Encoding: 25 55 25
Width: 578
Flags: W
LayerCount: 2
Fore
SplineSet
64 614 m 1,0,-1
 64 690 l 1,1,-1
 514 690 l 1,2,-1
 514 515 l 1,3,-1
 244 0 l 1,4,-1
 169 0 l 1,5,-1
 158 20 l 1,6,-1
 430 534 l 1,7,-1
 430 614 l 1,8,-1
 64 614 l 1,0,-1
EndSplineSet
EndChar

StartChar: eight
Encoding: 26 56 26
Width: 578
Flags: W
LayerCount: 2
Fore
SplineSet
64 153 m 2,0,-1
 64 264 l 2,1,2
 64 304 64 304 89 329 c 2,3,-1
 124 364 l 1,4,-1
 89 399 l 2,5,6
 64 424 64 424 64 464 c 2,7,-1
 64 537 l 2,8,9
 64 690 64 690 217 690 c 2,10,-1
 361 690 l 2,11,12
 514 690 514 690 514 537 c 2,13,-1
 514 464 l 2,14,15
 514 424 514 424 489 399 c 2,16,-1
 454 364 l 1,17,-1
 489 329 l 2,18,19
 514 304 514 304 514 264 c 2,20,-1
 514 153 l 2,21,22
 514 0 514 0 361 0 c 2,23,-1
 217 0 l 2,24,25
 64 0 64 0 64 153 c 2,0,-1
148 144 m 2,26,27
 148 76 148 76 216 76 c 2,28,-1
 362 76 l 2,29,30
 430 76 430 76 430 144 c 2,31,-1
 430 256 l 2,32,33
 430 324 430 324 362 324 c 2,34,-1
 216 324 l 2,35,36
 148 324 148 324 148 256 c 2,37,-1
 148 144 l 2,26,27
148 468 m 2,38,39
 148 400 148 400 216 400 c 2,40,-1
 362 400 l 2,41,42
 430 400 430 400 430 468 c 2,43,-1
 430 546 l 2,44,45
 430 614 430 614 362 614 c 2,46,-1
 216 614 l 2,47,48
 148 614 148 614 148 546 c 2,49,-1
 148 468 l 2,38,39
EndSplineSet
EndChar

StartChar: nine
Encoding: 27 57 27
Width: 578
Flags: W
LayerCount: 2
Fore
SplineSet
64 433 m 2,0,-1
 64 537 l 2,1,2
 64 690 64 690 217 690 c 2,3,-1
 361 690 l 2,4,5
 514 690 514 690 514 537 c 2,6,-1
 514 184 l 2,7,8
 514 0 514 0 330 0 c 2,9,-1
 139 0 l 1,10,-1
 94 35 l 1,11,-1
 94 76 l 1,12,-1
 334 76 l 2,13,14
 430 76 430 76 430 172 c 2,15,-1
 430 280 l 1,16,-1
 217 280 l 2,17,18
 64 280 64 280 64 433 c 2,0,-1
148 424 m 2,19,20
 148 356 148 356 216 356 c 2,21,-1
 430 356 l 1,22,-1
 430 546 l 2,23,24
 430 614 430 614 362 614 c 2,25,-1
 216 614 l 2,26,27
 148 614 148 614 148 546 c 2,28,-1
 148 424 l 2,19,20
EndSplineSet
EndChar

StartChar: less
Encoding: 30 60 30
Width: 578
Flags: W
LayerCount: 2
Fore
SplineSet
64 296 m 1,0,-1
 64 374 l 1,1,-1
 484 575 l 1,2,-1
 514 512 l 1,3,-1
 136 335 l 1,4,-1
 514 158 l 1,5,-1
 484 95 l 1,6,-1
 64 296 l 1,0,-1
EndSplineSet
EndChar

StartChar: equal
Encoding: 31 61 31
Width: 578
Flags: W
LayerCount: 2
Fore
SplineSet
64 190 m 1,0,-1
 64 260 l 1,1,-1
 514 260 l 1,2,-1
 514 190 l 1,3,-1
 64 190 l 1,0,-1
64 410 m 1,4,-1
 64 480 l 1,5,-1
 514 480 l 1,6,-1
 514 410 l 1,7,-1
 64 410 l 1,4,-1
EndSplineSet
EndChar

StartChar: greater
Encoding: 32 62 32
Width: 578
Flags: W
LayerCount: 2
Fore
SplineSet
64 158 m 1,0,-1
 442 335 l 1,1,-1
 64 512 l 1,2,-1
 94 575 l 1,3,-1
 514 374 l 1,4,-1
 514 296 l 1,5,-1
 94 95 l 1,6,-1
 64 158 l 1,0,-1
EndSplineSet
EndChar

StartChar: question
Encoding: 33 63 33
Width: 500
Flags: W
LayerCount: 2
Fore
SplineSet
40 614 m 1,0,-1
 40 655 l 1,1,-1
 85 690 l 1,2,-1
 297 690 l 2,3,4
 450 690 450 690 450 537 c 2,5,-1
 450 447 l 2,6,7
 450 294 450 294 297 294 c 2,8,-1
 254 294 l 1,9,-1
 254 210 l 1,10,-1
 170 210 l 1,11,-1
 170 370 l 1,12,-1
 298 370 l 2,13,14
 366 370 366 370 366 438 c 2,15,-1
 366 546 l 2,16,17
 366 614 366 614 298 614 c 2,18,-1
 40 614 l 1,0,-1
162 0 m 1,19,-1
 162 110 l 1,20,-1
 262 110 l 1,21,-1
 262 0 l 1,22,-1
 162 0 l 1,19,-1
EndSplineSet
EndChar

StartChar: at
Encoding: 34 64 34
Width: 800
Flags: W
LayerCount: 2
Fore
SplineSet
90 7 m 2,0,-1
 90 543 l 2,1,2
 90 690 90 690 237 690 c 2,3,-1
 710 690 l 1,4,-1
 710 60 l 1,5,-1
 460 60 l 2,6,7
 310 60 310 60 310 210 c 2,8,-1
 310 340 l 2,9,10
 310 490 310 490 460 490 c 2,11,-1
 636 490 l 1,12,-1
 636 626 l 1,13,-1
 237 626 l 2,14,15
 164 626 164 626 164 553 c 2,16,-1
 164 -3 l 2,17,18
 164 -76 164 -76 237 -76 c 2,19,-1
 690 -76 l 1,20,-1
 690 -110 l 1,21,-1
 650 -140 l 1,22,-1
 237 -140 l 2,23,24
 90 -140 90 -140 90 7 c 2,0,-1
390 200 m 2,25,26
 390 130 390 130 460 130 c 2,27,-1
 630 130 l 1,28,-1
 630 420 l 1,29,-1
 460 420 l 2,30,31
 390 420 390 420 390 350 c 2,32,-1
 390 200 l 2,25,26
EndSplineSet
EndChar

StartChar: A
Encoding: 35 65 35
Width: 630
Flags: W
LayerCount: 2
Fore
SplineSet
20 18 m 1,0,-1
 246 690 l 1,1,-1
 384 690 l 1,2,-1
 610 18 l 1,3,-1
 598 0 l 1,4,-1
 529 0 l 1,5,-1
 472 174 l 1,6,-1
 158 174 l 1,7,-1
 101 0 l 1,8,-1
 32 0 l 1,9,-1
 20 18 l 1,0,-1
183 250 m 1,10,-1
 447 250 l 1,11,-1
 327 614 l 1,12,-1
 303 614 l 1,13,-1
 183 250 l 1,10,-1
EndSplineSet
EndChar

StartChar: B
Encoding: 36 66 36
Width: 644
Flags: W
LayerCount: 2
Fore
SplineSet
90 0 m 1,0,-1
 90 690 l 1,1,-1
 407 690 l 2,2,3
 560 690 560 690 560 537 c 2,4,-1
 560 468 l 2,5,6
 560 434 560 434 540 410 c 2,7,-1
 505 368 l 1,8,-1
 547 333 l 2,9,10
 580 306 580 306 580 253 c 2,11,-1
 580 153 l 2,12,13
 580 0 580 0 427 0 c 2,14,-1
 90 0 l 1,0,-1
174 76 m 1,15,-1
 428 76 l 2,16,17
 496 76 496 76 496 144 c 2,18,-1
 496 256 l 2,19,20
 496 324 496 324 428 324 c 2,21,-1
 174 324 l 1,22,-1
 174 76 l 1,15,-1
174 400 m 1,23,-1
 408 400 l 2,24,25
 476 400 476 400 476 468 c 2,26,-1
 476 546 l 2,27,28
 476 614 476 614 408 614 c 2,29,-1
 174 614 l 1,30,-1
 174 400 l 1,23,-1
EndSplineSet
EndChar

StartChar: C
Encoding: 37 67 37
Width: 610
Flags: W
LayerCount: 2
Fore
SplineSet
80 153 m 2,0,-1
 80 537 l 2,1,2
 80 690 80 690 233 690 c 2,3,-1
 515 690 l 1,4,-1
 560 655 l 1,5,-1
 560 614 l 1,6,-1
 232 614 l 2,7,8
 164 614 164 614 164 546 c 2,9,-1
 164 144 l 2,10,11
 164 76 164 76 232 76 c 2,12,-1
 560 76 l 1,13,-1
 560 35 l 1,14,-1
 515 0 l 1,15,-1
 233 0 l 2,16,17
 80 0 80 0 80 153 c 2,0,-1
EndSplineSet
EndChar

StartChar: D
Encoding: 38 68 38
Width: 680
Flags: W
LayerCount: 2
Fore
SplineSet
90 0 m 1,0,-1
 90 690 l 1,1,-1
 360 690 l 2,2,3
 610 690 610 690 610 440 c 2,4,-1
 610 250 l 2,5,6
 610 0 610 0 360 0 c 2,7,-1
 90 0 l 1,0,-1
174 76 m 1,8,-1
 365 76 l 2,9,10
 526 76 526 76 526 237 c 2,11,-1
 526 453 l 2,12,13
 526 614 526 614 365 614 c 2,14,-1
 174 614 l 1,15,-1
 174 76 l 1,8,-1
EndSplineSet
EndChar

StartChar: E
Encoding: 39 69 39
Width: 590
Flags: W
LayerCount: 2
Fore
SplineSet
90 0 m 1,0,-1
 90 690 l 1,1,-1
 540 690 l 1,2,-1
 540 614 l 1,3,-1
 174 614 l 1,4,-1
 174 400 l 1,5,-1
 510 400 l 1,6,-1
 510 324 l 1,7,-1
 174 324 l 1,8,-1
 174 76 l 1,9,-1
 540 76 l 1,10,-1
 540 0 l 1,11,-1
 90 0 l 1,0,-1
EndSplineSet
EndChar

StartChar: F
Encoding: 40 70 40
Width: 570
Flags: W
LayerCount: 2
Fore
SplineSet
90 0 m 1,0,-1
 90 690 l 1,1,-1
 540 690 l 1,2,-1
 540 614 l 1,3,-1
 174 614 l 1,4,-1
 174 370 l 1,5,-1
 510 370 l 1,6,-1
 510 294 l 1,7,-1
 174 294 l 1,8,-1
 174 0 l 1,9,-1
 90 0 l 1,0,-1
EndSplineSet
EndChar

StartChar: G
Encoding: 41 71 41
Width: 670
Flags: W
LayerCount: 2
Fore
SplineSet
80 153 m 2,0,-1
 80 537 l 2,1,2
 80 690 80 690 233 690 c 2,3,-1
 535 690 l 1,4,-1
 580 655 l 1,5,-1
 580 614 l 1,6,-1
 232 614 l 2,7,8
 164 614 164 614 164 546 c 2,9,-1
 164 144 l 2,10,11
 164 76 164 76 232 76 c 2,12,-1
 516 76 l 1,13,-1
 516 324 l 1,14,-1
 346 324 l 1,15,-1
 346 400 l 1,16,-1
 600 400 l 1,17,-1
 600 0 l 1,18,-1
 233 0 l 2,19,20
 80 0 80 0 80 153 c 2,0,-1
EndSplineSet
EndChar

StartChar: H
Encoding: 42 72 42
Width: 700
Flags: W
LayerCount: 2
Fore
SplineSet
90 0 m 1,0,-1
 90 690 l 1,1,-1
 174 690 l 1,2,-1
 174 400 l 1,3,-1
 526 400 l 1,4,-1
 526 690 l 1,5,-1
 610 690 l 1,6,-1
 610 0 l 1,7,-1
 526 0 l 1,8,-1
 526 324 l 1,9,-1
 174 324 l 1,10,-1
 174 0 l 1,11,-1
 90 0 l 1,0,-1
EndSplineSet
EndChar

StartChar: I
Encoding: 43 73 43
Width: 264
Flags: W
LayerCount: 2
Fore
SplineSet
90 0 m 1,0,-1
 90 690 l 1,1,-1
 174 690 l 1,2,-1
 174 0 l 1,3,-1
 90 0 l 1,0,-1
EndSplineSet
EndChar

StartChar: J
Encoding: 44 74 44
Width: 604
Flags: W
LayerCount: 2
Fore
SplineSet
60 153 m 2,0,-1
 60 260 l 1,1,-1
 144 260 l 1,2,-1
 144 144 l 2,3,4
 144 76 144 76 212 76 c 2,5,-1
 368 76 l 2,6,7
 436 76 436 76 436 144 c 2,8,-1
 436 614 l 1,9,-1
 210 614 l 1,10,-1
 210 690 l 1,11,-1
 520 690 l 1,12,-1
 520 153 l 2,13,14
 520 0 520 0 367 0 c 2,15,-1
 213 0 l 2,16,17
 60 0 60 0 60 153 c 2,0,-1
EndSplineSet
EndChar

StartChar: K
Encoding: 45 75 45
Width: 630
Flags: W
LayerCount: 2
Fore
SplineSet
90 0 m 1,0,-1
 90 690 l 1,1,-1
 174 690 l 1,2,-1
 174 336 l 1,3,-1
 491 690 l 1,4,-1
 568 690 l 1,5,-1
 577 671 l 1,6,-1
 339 406 l 1,7,-1
 600 19 l 1,8,-1
 591 0 l 1,9,-1
 514 0 l 1,10,-1
 284 345 l 1,11,-1
 174 224 l 1,12,-1
 174 0 l 1,13,-1
 90 0 l 1,0,-1
EndSplineSet
EndChar

StartChar: L
Encoding: 46 76 46
Width: 534
Flags: W
LayerCount: 2
Fore
SplineSet
90 0 m 1,0,-1
 90 690 l 1,1,-1
 174 690 l 1,2,-1
 174 76 l 1,3,-1
 510 76 l 1,4,-1
 510 0 l 1,5,-1
 90 0 l 1,0,-1
EndSplineSet
EndChar

StartChar: M
Encoding: 47 77 47
Width: 870
Flags: W
LayerCount: 2
Fore
SplineSet
90 0 m 1,0,-1
 90 690 l 1,1,-1
 201 690 l 1,2,-1
 435 192 l 1,3,-1
 669 690 l 1,4,-1
 780 690 l 1,5,-1
 780 0 l 1,6,-1
 696 0 l 1,7,-1
 696 564 l 1,8,-1
 478 100 l 1,9,-1
 392 100 l 1,10,-1
 174 564 l 1,11,-1
 174 0 l 1,12,-1
 90 0 l 1,0,-1
EndSplineSet
EndChar

StartChar: N
Encoding: 48 78 48
Width: 720
Flags: W
LayerCount: 2
Fore
SplineSet
90 0 m 1,0,-1
 90 690 l 1,1,-1
 183 690 l 1,2,-1
 546 130 l 1,3,-1
 546 690 l 1,4,-1
 630 690 l 1,5,-1
 630 0 l 1,6,-1
 537 0 l 1,7,-1
 174 560 l 1,8,-1
 174 0 l 1,9,-1
 90 0 l 1,0,-1
EndSplineSet
EndChar

StartChar: O
Encoding: 49 79 49
Width: 700
Flags: W
LayerCount: 2
Fore
SplineSet
80 153 m 2,0,-1
 80 537 l 2,1,2
 80 690 80 690 233 690 c 2,3,-1
 467 690 l 2,4,5
 620 690 620 690 620 537 c 2,6,-1
 620 153 l 2,7,8
 620 0 620 0 467 0 c 2,9,-1
 233 0 l 2,10,11
 80 0 80 0 80 153 c 2,0,-1
164 144 m 2,12,13
 164 76 164 76 232 76 c 2,14,-1
 468 76 l 2,15,16
 536 76 536 76 536 144 c 2,17,-1
 536 546 l 2,18,19
 536 614 536 614 468 614 c 2,20,-1
 232 614 l 2,21,22
 164 614 164 614 164 546 c 2,23,-1
 164 144 l 2,12,13
EndSplineSet
EndChar

StartChar: P
Encoding: 50 80 50
Width: 630
Flags: W
LayerCount: 2
Fore
SplineSet
90 0 m 1,0,-1
 90 690 l 1,1,-1
 417 690 l 2,2,3
 570 690 570 690 570 537 c 2,4,-1
 570 407 l 2,5,6
 570 254 570 254 417 254 c 2,7,-1
 174 254 l 1,8,-1
 174 0 l 1,9,-1
 90 0 l 1,0,-1
174 330 m 1,10,-1
 418 330 l 2,11,12
 486 330 486 330 486 398 c 2,13,-1
 486 546 l 2,14,15
 486 614 486 614 418 614 c 2,16,-1
 174 614 l 1,17,-1
 174 330 l 1,10,-1
EndSplineSet
EndChar

StartChar: Q
Encoding: 51 81 51
Width: 700
Flags: W
LayerCount: 2
Fore
SplineSet
80 153 m 2,0,-1
 80 537 l 2,1,2
 80 690 80 690 233 690 c 2,3,-1
 467 690 l 2,4,5
 620 690 620 690 620 537 c 2,6,-1
 620 153 l 2,7,8
 620 12 620 12 490 1 c 1,9,-1
 557 -130 l 1,10,-1
 546 -150 l 1,11,-1
 475 -150 l 1,12,-1
 399 0 l 1,13,-1
 233 0 l 2,14,15
 80 0 80 0 80 153 c 2,0,-1
164 144 m 2,16,17
 164 76 164 76 232 76 c 2,18,-1
 468 76 l 2,19,20
 536 76 536 76 536 144 c 2,21,-1
 536 546 l 2,22,23
 536 614 536 614 468 614 c 2,24,-1
 232 614 l 2,25,26
 164 614 164 614 164 546 c 2,27,-1
 164 144 l 2,16,17
EndSplineSet
EndChar

StartChar: R
Encoding: 52 82 52
Width: 640
Flags: W
LayerCount: 2
Fore
SplineSet
90 0 m 1,0,-1
 90 690 l 1,1,-1
 417 690 l 2,2,3
 570 690 570 690 570 537 c 2,4,-1
 570 427 l 2,5,6
 570 297 570 297 459 277 c 1,7,-1
 590 20 l 1,8,-1
 579 0 l 1,9,-1
 508 0 l 1,10,-1
 369 274 l 1,11,-1
 174 274 l 1,12,-1
 174 0 l 1,13,-1
 90 0 l 1,0,-1
174 350 m 1,14,-1
 418 350 l 2,15,16
 486 350 486 350 486 418 c 2,17,-1
 486 546 l 2,18,19
 486 614 486 614 418 614 c 2,20,-1
 174 614 l 1,21,-1
 174 350 l 1,14,-1
EndSplineSet
EndChar

StartChar: S
Encoding: 53 83 53
Width: 580
Flags: W
LayerCount: 2
Fore
SplineSet
60 35 m 1,0,-1
 60 76 l 1,1,-1
 368 76 l 2,2,3
 436 76 436 76 436 144 c 2,4,-1
 436 226 l 2,5,6
 436 283 436 283 385 293 c 2,7,-1
 170 336 l 2,8,9
 60 358 60 358 60 484 c 2,10,-1
 60 537 l 2,11,12
 60 690 60 690 213 690 c 2,13,-1
 455 690 l 1,14,-1
 500 655 l 1,15,-1
 500 614 l 1,16,-1
 212 614 l 2,17,18
 144 614 144 614 144 546 c 2,19,-1
 144 478 l 2,20,21
 144 421 144 421 195 411 c 2,22,-1
 410 368 l 2,23,24
 520 346 520 346 520 220 c 2,25,-1
 520 153 l 2,26,27
 520 0 520 0 367 0 c 2,28,-1
 105 0 l 1,29,-1
 60 35 l 1,0,-1
EndSplineSet
EndChar

StartChar: T
Encoding: 54 84 54
Width: 592
Flags: W
LayerCount: 2
Fore
SplineSet
24 614 m 1,0,-1
 24 690 l 1,1,-1
 568 690 l 1,2,-1
 568 614 l 1,3,-1
 338 614 l 1,4,-1
 338 0 l 1,5,-1
 254 0 l 1,6,-1
 254 614 l 1,7,-1
 24 614 l 1,0,-1
EndSplineSet
EndChar

StartChar: U
Encoding: 55 85 55
Width: 688
Flags: W
LayerCount: 2
Fore
SplineSet
84 153 m 2,0,-1
 84 690 l 1,1,-1
 168 690 l 1,2,-1
 168 144 l 2,3,4
 168 76 168 76 236 76 c 2,5,-1
 452 76 l 2,6,7
 520 76 520 76 520 144 c 2,8,-1
 520 690 l 1,9,-1
 604 690 l 1,10,-1
 604 153 l 2,11,12
 604 0 604 0 451 0 c 2,13,-1
 237 0 l 2,14,15
 84 0 84 0 84 153 c 2,0,-1
EndSplineSet
EndChar

StartChar: V
Encoding: 56 86 56
Width: 620
Flags: W
LayerCount: 2
Fore
SplineSet
20 672 m 1,0,-1
 32 690 l 1,1,-1
 103 690 l 1,2,-1
 298 76 l 1,3,-1
 322 76 l 1,4,-1
 517 690 l 1,5,-1
 588 690 l 1,6,-1
 600 672 l 1,7,-1
 382 0 l 1,8,-1
 238 0 l 1,9,-1
 20 672 l 1,0,-1
EndSplineSet
EndChar

StartChar: W
Encoding: 57 87 57
Width: 920
Flags: W
LayerCount: 2
Fore
SplineSet
30 672 m 1,0,-1
 43 690 l 1,1,-1
 111 690 l 1,2,-1
 253 76 l 1,3,-1
 268 76 l 1,4,-1
 419 614 l 1,5,-1
 501 614 l 1,6,-1
 652 76 l 1,7,-1
 667 76 l 1,8,-1
 809 690 l 1,9,-1
 877 690 l 1,10,-1
 890 672 l 1,11,-1
 731 0 l 1,12,-1
 591 0 l 1,13,-1
 460 479 l 1,14,-1
 329 0 l 1,15,-1
 189 0 l 1,16,-1
 30 672 l 1,0,-1
EndSplineSet
EndChar

StartChar: X
Encoding: 58 88 58
Width: 610
Flags: W
LayerCount: 2
Fore
SplineSet
30 19 m 1,0,-1
 258 355 l 1,1,-1
 43 671 l 1,2,-1
 52 690 l 1,3,-1
 125 690 l 1,4,-1
 305 420 l 1,5,-1
 485 690 l 1,6,-1
 558 690 l 1,7,-1
 567 671 l 1,8,-1
 352 355 l 1,9,-1
 580 19 l 1,10,-1
 571 0 l 1,11,-1
 498 0 l 1,12,-1
 305 290 l 1,13,-1
 112 0 l 1,14,-1
 39 0 l 1,15,-1
 30 19 l 1,0,-1
EndSplineSet
EndChar

StartChar: Y
Encoding: 59 89 59
Width: 580
Flags: W
LayerCount: 2
Fore
SplineSet
20 672 m 1,0,-1
 31 690 l 1,1,-1
 102 690 l 1,2,-1
 290 341 l 1,3,-1
 478 690 l 1,4,-1
 549 690 l 1,5,-1
 560 672 l 1,6,-1
 332 256 l 1,7,-1
 332 0 l 1,8,-1
 248 0 l 1,9,-1
 248 256 l 1,10,-1
 20 672 l 1,0,-1
EndSplineSet
EndChar

StartChar: Z
Encoding: 60 90 60
Width: 600
Flags: W
LayerCount: 2
Fore
SplineSet
50 0 m 1,0,-1
 50 67 l 1,1,-1
 436 614 l 1,2,-1
 60 614 l 1,3,-1
 60 690 l 1,4,-1
 540 690 l 1,5,-1
 540 623 l 1,6,-1
 154 76 l 1,7,-1
 550 76 l 1,8,-1
 550 0 l 1,9,-1
 50 0 l 1,0,-1
EndSplineSet
EndChar

StartChar: bracketleft
Encoding: 61 91 61
Width: 340
Flags: W
LayerCount: 2
Fore
SplineSet
90 -180 m 1,0,-1
 90 760 l 1,1,-1
 310 760 l 1,2,-1
 310 690 l 1,3,-1
 170 690 l 1,4,-1
 170 -110 l 1,5,-1
 310 -110 l 1,6,-1
 310 -180 l 1,7,-1
 90 -180 l 1,0,-1
EndSplineSet
EndChar

StartChar: backslash
Encoding: 62 92 62
Width: 390
Flags: W
LayerCount: 2
Fore
SplineSet
20 715 m 1,0,-1
 89 740 l 1,1,-1
 370 -25 l 1,2,-1
 301 -50 l 1,3,-1
 20 715 l 1,0,-1
EndSplineSet
EndChar

StartChar: bracketright
Encoding: 63 93 63
Width: 340
Flags: W
LayerCount: 2
Fore
SplineSet
30 -110 m 1,0,-1
 170 -110 l 1,1,-1
 170 690 l 1,2,-1
 30 690 l 1,3,-1
 30 760 l 1,4,-1
 250 760 l 1,5,-1
 250 -180 l 1,6,-1
 30 -180 l 1,7,-1
 30 -110 l 1,0,-1
EndSplineSet
EndChar

StartChar: asciicircum
Encoding: 64 94 64
Width: 540
Flags: W
LayerCount: 2
Fore
SplineSet
40 345 m 1,0,-1
 231 690 l 1,1,-1
 309 690 l 1,2,-1
 500 345 l 1,3,-1
 437 310 l 1,4,-1
 270 615 l 1,5,-1
 103 310 l 1,6,-1
 40 345 l 1,0,-1
EndSplineSet
EndChar

StartChar: underscore
Encoding: 65 95 65
Width: 580
Flags: W
LayerCount: 2
Fore
SplineSet
40 -130 m 1,0,-1
 540 -130 l 1,1,-1
 540 -200 l 1,2,-1
 40 -200 l 1,3,-1
 40 -130 l 1,0,-1
EndSplineSet
EndChar

StartChar: a
Encoding: 67 97 67
Width: 542
Flags: W
LayerCount: 2
Fore
SplineSet
203 0 m 2,0,1
 52 0 52 0 52 151 c 128,-1,2
 52 302 52 302 203 302 c 2,3,-1
 386 302 l 1,4,-1
 386 380 l 2,5,6
 386 450 386 450 316 450 c 2,7,-1
 102 450 l 1,8,-1
 102 490 l 1,9,-1
 142 520 l 1,10,-1
 316 520 l 2,11,12
 466 520 466 520 466 370 c 2,13,-1
 466 0 l 1,14,-1
 203 0 l 2,0,1
132 140 m 2,15,16
 132 70 132 70 202 70 c 2,17,-1
 386 70 l 1,18,-1
 386 232 l 1,19,-1
 202 232 l 2,20,21
 132 232 132 232 132 162 c 2,22,-1
 132 140 l 2,15,16
EndSplineSet
EndChar

StartChar: b
Encoding: 68 98 68
Width: 582
Flags: W
LayerCount: 2
Fore
SplineSet
80 0 m 1,0,-1
 80 740 l 1,1,-1
 160 740 l 1,2,-1
 160 520 l 1,3,-1
 360 520 l 2,4,5
 510 520 510 520 510 370 c 2,6,-1
 510 150 l 2,7,8
 510 0 510 0 360 0 c 2,9,-1
 80 0 l 1,0,-1
160 70 m 1,10,-1
 360 70 l 2,11,12
 430 70 430 70 430 140 c 2,13,-1
 430 380 l 2,14,15
 430 450 430 450 360 450 c 2,16,-1
 160 450 l 1,17,-1
 160 70 l 1,10,-1
EndSplineSet
EndChar

StartChar: c
Encoding: 69 99 69
Width: 504
Flags: W
LayerCount: 2
Fore
SplineSet
72 150 m 2,0,-1
 72 370 l 2,1,2
 72 520 72 520 222 520 c 2,3,-1
 418 520 l 1,4,-1
 458 490 l 1,5,-1
 458 450 l 1,6,-1
 222 450 l 2,7,8
 152 450 152 450 152 380 c 2,9,-1
 152 140 l 2,10,11
 152 70 152 70 222 70 c 2,12,-1
 458 70 l 1,13,-1
 458 30 l 1,14,-1
 418 0 l 1,15,-1
 222 0 l 2,16,17
 72 0 72 0 72 150 c 2,0,-1
EndSplineSet
EndChar

StartChar: d
Encoding: 70 100 70
Width: 582
Flags: W
LayerCount: 2
Fore
SplineSet
72 150 m 2,0,-1
 72 370 l 2,1,2
 72 520 72 520 222 520 c 2,3,-1
 422 520 l 1,4,-1
 422 740 l 1,5,-1
 502 740 l 1,6,-1
 502 0 l 1,7,-1
 222 0 l 2,8,9
 72 0 72 0 72 150 c 2,0,-1
152 140 m 2,10,11
 152 70 152 70 222 70 c 2,12,-1
 422 70 l 1,13,-1
 422 450 l 1,14,-1
 222 450 l 2,15,16
 152 450 152 450 152 380 c 2,17,-1
 152 140 l 2,10,11
EndSplineSet
EndChar

StartChar: e
Encoding: 71 101 71
Width: 574
Flags: W
LayerCount: 2
Fore
SplineSet
72 150 m 2,0,-1
 72 370 l 2,1,2
 72 520 72 520 222 520 c 2,3,-1
 352 520 l 2,4,5
 502 520 502 520 502 370 c 2,6,-1
 502 226 l 1,7,-1
 152 226 l 1,8,-1
 152 140 l 2,9,10
 152 70 152 70 222 70 c 2,11,-1
 482 70 l 1,12,-1
 482 30 l 1,13,-1
 442 0 l 1,14,-1
 222 0 l 2,15,16
 72 0 72 0 72 150 c 2,0,-1
152 296 m 1,17,-1
 422 296 l 1,18,-1
 422 380 l 2,19,20
 422 450 422 450 352 450 c 2,21,-1
 222 450 l 2,22,23
 152 450 152 450 152 380 c 2,24,-1
 152 296 l 1,17,-1
EndSplineSet
EndChar

StartChar: f
Encoding: 72 102 72
Width: 380
Flags: W
LayerCount: 2
Fore
SplineSet
80 0 m 1,0,-1
 80 590 l 2,1,2
 80 740 80 740 230 740 c 2,3,-1
 320 740 l 1,4,-1
 360 710 l 1,5,-1
 360 670 l 1,6,-1
 230 670 l 2,7,8
 160 670 160 670 160 600 c 2,9,-1
 160 520 l 1,10,-1
 350 520 l 1,11,-1
 350 450 l 1,12,-1
 160 450 l 1,13,-1
 160 0 l 1,14,-1
 80 0 l 1,0,-1
EndSplineSet
EndChar

StartChar: g
Encoding: 73 103 73
Width: 582
Flags: W
LayerCount: 2
Fore
SplineSet
72 150 m 2,0,-1
 72 370 l 2,1,2
 72 520 72 520 222 520 c 2,3,-1
 502 520 l 1,4,-1
 502 -50 l 2,5,6
 502 -200 502 -200 352 -200 c 2,7,-1
 152 -200 l 1,8,-1
 112 -170 l 1,9,-1
 112 -130 l 1,10,-1
 352 -130 l 2,11,12
 422 -130 422 -130 422 -60 c 2,13,-1
 422 0 l 1,14,-1
 222 0 l 2,15,16
 72 0 72 0 72 150 c 2,0,-1
152 140 m 2,17,18
 152 70 152 70 222 70 c 2,19,-1
 422 70 l 1,20,-1
 422 450 l 1,21,-1
 222 450 l 2,22,23
 152 450 152 450 152 380 c 2,24,-1
 152 140 l 2,17,18
EndSplineSet
EndChar

StartChar: h
Encoding: 74 104 74
Width: 586
Flags: W
LayerCount: 2
Fore
SplineSet
80 0 m 1,0,-1
 80 740 l 1,1,-1
 160 740 l 1,2,-1
 160 520 l 1,3,-1
 360 520 l 2,4,5
 510 520 510 520 510 370 c 2,6,-1
 510 0 l 1,7,-1
 430 0 l 1,8,-1
 430 380 l 2,9,10
 430 450 430 450 360 450 c 2,11,-1
 160 450 l 1,12,-1
 160 0 l 1,13,-1
 80 0 l 1,0,-1
EndSplineSet
EndChar

StartChar: i
Encoding: 75 105 75
Width: 240
Flags: W
LayerCount: 2
Fore
SplineSet
78 614 m 1,0,-1
 78 706 l 1,1,-1
 162 706 l 1,2,-1
 162 614 l 1,3,-1
 78 614 l 1,0,-1
80 0 m 1,4,-1
 80 520 l 1,5,-1
 160 520 l 1,6,-1
 160 0 l 1,7,-1
 80 0 l 1,4,-1
EndSplineSet
EndChar

StartChar: j
Encoding: 76 106 76
Width: 240
Flags: W
LayerCount: 2
Fore
SplineSet
-8 -138 m 1,0,1
 80 -134 80 -134 80 -48 c 2,2,-1
 80 520 l 1,3,-1
 160 520 l 1,4,-1
 160 -40 l 2,5,6
 160 -208 160 -208 -8 -208 c 1,7,-1
 -8 -138 l 1,0,1
78 614 m 1,8,-1
 78 706 l 1,9,-1
 162 706 l 1,10,-1
 162 614 l 1,11,-1
 78 614 l 1,8,-1
EndSplineSet
EndChar

StartChar: k
Encoding: 77 107 77
Width: 528
Flags: W
LayerCount: 2
Fore
SplineSet
80 0 m 1,0,-1
 80 740 l 1,1,-1
 160 740 l 1,2,-1
 160 255 l 1,3,-1
 401 520 l 1,4,-1
 479 520 l 1,5,-1
 486 505 l 1,6,-1
 300 302 l 1,7,-1
 500 15 l 1,8,-1
 493 0 l 1,9,-1
 415 0 l 1,10,-1
 247 244 l 1,11,-1
 160 150 l 1,12,-1
 160 0 l 1,13,-1
 80 0 l 1,0,-1
EndSplineSet
EndChar

StartChar: l
Encoding: 78 108 78
Width: 260
Flags: W
LayerCount: 2
Fore
SplineSet
76 142 m 2,0,-1
 76 740 l 1,1,-1
 156 740 l 1,2,-1
 156 134 l 2,3,4
 156 66 156 66 226 62 c 1,5,-1
 226 -8 l 1,6,7
 76 -8 76 -8 76 142 c 2,0,-1
EndSplineSet
EndChar

StartChar: m
Encoding: 79 109 79
Width: 896
Flags: W
LayerCount: 2
Fore
SplineSet
80 0 m 1,0,-1
 80 520 l 1,1,-1
 670 520 l 2,2,3
 820 520 820 520 820 370 c 2,4,-1
 820 0 l 1,5,-1
 740 0 l 1,6,-1
 740 380 l 2,7,8
 740 450 740 450 670 450 c 2,9,-1
 490 450 l 1,10,-1
 490 0 l 1,11,-1
 410 0 l 1,12,-1
 410 450 l 1,13,-1
 160 450 l 1,14,-1
 160 0 l 1,15,-1
 80 0 l 1,0,-1
EndSplineSet
EndChar

StartChar: n
Encoding: 80 110 80
Width: 586
Flags: W
LayerCount: 2
Fore
SplineSet
80 0 m 1,0,-1
 80 520 l 1,1,-1
 360 520 l 2,2,3
 510 520 510 520 510 370 c 2,4,-1
 510 0 l 1,5,-1
 430 0 l 1,6,-1
 430 380 l 2,7,8
 430 450 430 450 360 450 c 2,9,-1
 160 450 l 1,10,-1
 160 0 l 1,11,-1
 80 0 l 1,0,-1
EndSplineSet
EndChar

StartChar: o
Encoding: 81 111 81
Width: 584
Flags: W
LayerCount: 2
Fore
SplineSet
72 150 m 2,0,-1
 72 370 l 2,1,2
 72 520 72 520 222 520 c 2,3,-1
 362 520 l 2,4,5
 512 520 512 520 512 370 c 2,6,-1
 512 150 l 2,7,8
 512 0 512 0 362 0 c 2,9,-1
 222 0 l 2,10,11
 72 0 72 0 72 150 c 2,0,-1
152 140 m 2,12,13
 152 70 152 70 222 70 c 2,14,-1
 362 70 l 2,15,16
 432 70 432 70 432 140 c 2,17,-1
 432 380 l 2,18,19
 432 450 432 450 362 450 c 2,20,-1
 222 450 l 2,21,22
 152 450 152 450 152 380 c 2,23,-1
 152 140 l 2,12,13
EndSplineSet
EndChar

StartChar: p
Encoding: 82 112 82
Width: 582
Flags: W
LayerCount: 2
Fore
SplineSet
80 -200 m 1,0,-1
 80 520 l 1,1,-1
 360 520 l 2,2,3
 510 520 510 520 510 370 c 2,4,-1
 510 150 l 2,5,6
 510 0 510 0 360 0 c 2,7,-1
 160 0 l 1,8,-1
 160 -200 l 1,9,-1
 80 -200 l 1,0,-1
160 70 m 1,10,-1
 360 70 l 2,11,12
 430 70 430 70 430 140 c 2,13,-1
 430 380 l 2,14,15
 430 450 430 450 360 450 c 2,16,-1
 160 450 l 1,17,-1
 160 70 l 1,10,-1
EndSplineSet
EndChar

StartChar: q
Encoding: 83 113 83
Width: 582
Flags: W
LayerCount: 2
Fore
SplineSet
72 150 m 2,0,-1
 72 370 l 2,1,2
 72 520 72 520 222 520 c 2,3,-1
 502 520 l 1,4,-1
 502 -200 l 1,5,-1
 422 -200 l 1,6,-1
 422 0 l 1,7,-1
 222 0 l 2,8,9
 72 0 72 0 72 150 c 2,0,-1
152 140 m 2,10,11
 152 70 152 70 222 70 c 2,12,-1
 422 70 l 1,13,-1
 422 450 l 1,14,-1
 222 450 l 2,15,16
 152 450 152 450 152 380 c 2,17,-1
 152 140 l 2,10,11
EndSplineSet
EndChar

StartChar: r
Encoding: 84 114 84
Width: 372
Flags: W
LayerCount: 2
Fore
SplineSet
76 0 m 1,0,-1
 76 460 l 1,1,2
 111 520 111 520 206 520 c 2,3,-1
 306 520 l 1,4,-1
 346 490 l 1,5,-1
 346 450 l 1,6,-1
 206 450 l 2,7,8
 172 450 172 450 156 432 c 1,9,-1
 156 0 l 1,10,-1
 76 0 l 1,0,-1
EndSplineSet
EndChar

StartChar: s
Encoding: 85 115 85
Width: 500
Flags: W
LayerCount: 2
Fore
SplineSet
60 30 m 1,0,-1
 60 70 l 1,1,-1
 290 70 l 2,2,3
 360 70 360 70 360 140 c 256,4,5
 360 210 360 210 300 220 c 2,6,-1
 180 240 l 2,7,8
 60 260 60 260 60 372 c 256,9,10
 60 520 60 520 210 520 c 2,11,-1
 376 520 l 1,12,-1
 416 490 l 1,13,-1
 416 450 l 1,14,-1
 210 450 l 2,15,16
 140 450 140 450 140 380 c 256,17,18
 140 320 140 320 200 310 c 2,19,-1
 320 290 l 2,20,21
 440 270 440 270 440 148 c 256,22,23
 440 0 440 0 290 0 c 2,24,-1
 100 0 l 1,25,-1
 60 30 l 1,0,-1
EndSplineSet
EndChar

StartChar: t
Encoding: 86 116 86
Width: 392
Flags: W
LayerCount: 2
Fore
SplineSet
76 150 m 2,0,-1
 76 690 l 1,1,-1
 156 690 l 1,2,-1
 156 520 l 1,3,-1
 346 520 l 1,4,-1
 346 450 l 1,5,-1
 156 450 l 1,6,-1
 156 140 l 2,7,8
 156 70 156 70 226 70 c 2,9,-1
 356 70 l 1,10,-1
 356 30 l 1,11,-1
 316 0 l 1,12,-1
 226 0 l 2,13,14
 76 0 76 0 76 150 c 2,0,-1
EndSplineSet
EndChar

StartChar: u
Encoding: 87 117 87
Width: 586
Flags: W
LayerCount: 2
Fore
SplineSet
76 150 m 2,0,-1
 76 520 l 1,1,-1
 156 520 l 1,2,-1
 156 140 l 2,3,4
 156 70 156 70 226 70 c 2,5,-1
 426 70 l 1,6,-1
 426 520 l 1,7,-1
 506 520 l 1,8,-1
 506 0 l 1,9,-1
 226 0 l 2,10,11
 76 0 76 0 76 150 c 2,0,-1
EndSplineSet
EndChar

StartChar: v
Encoding: 88 118 88
Width: 520
Flags: W
LayerCount: 2
Fore
SplineSet
20 506 m 1,0,-1
 29 520 l 1,1,-1
 98 520 l 1,2,-1
 250 70 l 1,3,-1
 270 70 l 1,4,-1
 422 520 l 1,5,-1
 491 520 l 1,6,-1
 500 506 l 1,7,-1
 325 0 l 1,8,-1
 195 0 l 1,9,-1
 20 506 l 1,0,-1
EndSplineSet
EndChar

StartChar: w
Encoding: 89 119 89
Width: 792
Flags: W
LayerCount: 2
Fore
SplineSet
24 506 m 1,0,-1
 34 520 l 1,1,-1
 101 520 l 1,2,-1
 206 70 l 1,3,-1
 221 70 l 1,4,-1
 346 520 l 1,5,-1
 446 520 l 1,6,-1
 571 70 l 1,7,-1
 586 70 l 1,8,-1
 691 520 l 1,9,-1
 758 520 l 1,10,-1
 768 506 l 1,11,-1
 646 0 l 1,12,-1
 518 0 l 1,13,-1
 396 440 l 1,14,-1
 274 0 l 1,15,-1
 146 0 l 1,16,-1
 24 506 l 1,0,-1
EndSplineSet
EndChar

StartChar: x
Encoding: 90 120 90
Width: 520
Flags: W
LayerCount: 2
Fore
SplineSet
30 15 m 1,0,-1
 214 265 l 1,1,-1
 37 505 l 1,2,-1
 44 520 l 1,3,-1
 118 520 l 1,4,-1
 260 323 l 1,5,-1
 402 520 l 1,6,-1
 476 520 l 1,7,-1
 483 505 l 1,8,-1
 306 265 l 1,9,-1
 490 15 l 1,10,-1
 483 0 l 1,11,-1
 409 0 l 1,12,-1
 260 207 l 1,13,-1
 111 0 l 1,14,-1
 37 0 l 1,15,-1
 30 15 l 1,0,-1
EndSplineSet
EndChar

StartChar: y
Encoding: 91 121 91
Width: 520
Flags: W
LayerCount: 2
Fore
SplineSet
20 506 m 1,0,-1
 29 520 l 1,1,-1
 98 520 l 1,2,-1
 250 70 l 1,3,-1
 270 70 l 1,4,-1
 422 520 l 1,5,-1
 491 520 l 1,6,-1
 500 506 l 1,7,-1
 256 -200 l 1,8,-1
 187 -200 l 1,9,-1
 178 -186 l 1,10,-1
 245 0 l 1,11,-1
 195 0 l 1,12,-1
 20 506 l 1,0,-1
EndSplineSet
EndChar

StartChar: z
Encoding: 92 122 92
Width: 510
Flags: W
LayerCount: 2
Fore
SplineSet
50 0 m 1,0,-1
 50 62 l 1,1,-1
 349 450 l 1,2,-1
 60 450 l 1,3,-1
 60 520 l 1,4,-1
 450 520 l 1,5,-1
 450 458 l 1,6,-1
 151 70 l 1,7,-1
 460 70 l 1,8,-1
 460 0 l 1,9,-1
 50 0 l 1,0,-1
EndSplineSet
EndChar

StartChar: braceleft
Encoding: 93 123 93
Width: 380
Flags: W
LayerCount: 2
Fore
SplineSet
50 270 m 1,0,-1
 50 310 l 1,1,-1
 140 400 l 1,2,-1
 140 610 l 2,3,4
 140 760 140 760 290 760 c 2,5,-1
 350 760 l 1,6,-1
 350 690 l 1,7,-1
 290 690 l 2,8,9
 220 690 220 690 220 620 c 2,10,-1
 220 380 l 1,11,-1
 130 290 l 1,12,-1
 220 200 l 1,13,-1
 220 -40 l 2,14,15
 220 -110 220 -110 290 -110 c 2,16,-1
 350 -110 l 1,17,-1
 350 -180 l 1,18,-1
 290 -180 l 2,19,20
 140 -180 140 -180 140 -30 c 2,21,-1
 140 180 l 1,22,-1
 50 270 l 1,0,-1
EndSplineSet
EndChar

StartChar: bar
Encoding: 94 124 94
Width: 274
Flags: W
LayerCount: 2
Fore
SplineSet
100 -200 m 1,0,-1
 100 740 l 1,1,-1
 174 740 l 1,2,-1
 174 -200 l 1,3,-1
 100 -200 l 1,0,-1
EndSplineSet
EndChar

StartChar: braceright
Encoding: 95 125 95
Width: 380
Flags: W
LayerCount: 2
Fore
SplineSet
30 -110 m 1,0,-1
 90 -110 l 2,1,2
 160 -110 160 -110 160 -40 c 2,3,-1
 160 200 l 1,4,-1
 250 290 l 1,5,-1
 160 380 l 1,6,-1
 160 620 l 2,7,8
 160 690 160 690 90 690 c 2,9,-1
 30 690 l 1,10,-1
 30 760 l 1,11,-1
 90 760 l 2,12,13
 240 760 240 760 240 610 c 2,14,-1
 240 400 l 1,15,-1
 330 310 l 1,16,-1
 330 270 l 1,17,-1
 240 180 l 1,18,-1
 240 -30 l 2,19,20
 240 -180 240 -180 90 -180 c 2,21,-1
 30 -180 l 1,22,-1
 30 -110 l 1,0,-1
EndSplineSet
EndChar

StartChar: asciitilde
Encoding: 96 126 96
Width: 578
Flags: W
LayerCount: 2
Fore
SplineSet
49 305 m 1,0,-1
 138 394 l 2,1,2
 169 425 169 425 209 425 c 128,-1,3
 249 425 249 425 280 394 c 2,4,-1
 340 334 l 2,5,6
 355 319 355 319 369 319 c 128,-1,7
 383 319 383 319 398 334 c 2,8,-1
 479 415 l 1,9,-1
 529 365 l 1,10,-1
 440 276 l 2,11,12
 409 245 409 245 369 245 c 128,-1,13
 329 245 329 245 298 276 c 2,14,-1
 238 336 l 2,15,16
 223 351 223 351 209 351 c 128,-1,17
 195 351 195 351 180 336 c 2,18,-1
 99 255 l 1,19,-1
 49 305 l 1,0,-1
EndSplineSet
EndChar

StartChar: exclamdown
Encoding: 98 161 98
Width: 260
Flags: W
LayerCount: 2
Fore
SplineSet
80 410 m 1,0,-1
 80 520 l 1,1,-1
 180 520 l 1,2,-1
 180 410 l 1,3,-1
 80 410 l 1,0,-1
88 -170 m 1,4,-1
 88 310 l 1,5,-1
 172 310 l 1,6,-1
 172 -170 l 1,7,-1
 88 -170 l 1,4,-1
EndSplineSet
EndChar

StartChar: cent
Encoding: 99 162 99
Width: 578
Flags: W
LayerCount: 2
Fore
SplineSet
94 150 m 2,0,-1
 94 370 l 2,1,2
 94 520 94 520 244 520 c 2,3,-1
 283 520 l 1,4,-1
 283 630 l 1,5,-1
 349 630 l 1,6,-1
 349 520 l 1,7,-1
 440 520 l 1,8,-1
 480 490 l 1,9,-1
 480 450 l 1,10,-1
 244 450 l 2,11,12
 174 450 174 450 174 380 c 2,13,-1
 174 140 l 2,14,15
 174 70 174 70 244 70 c 2,16,-1
 480 70 l 1,17,-1
 480 30 l 1,18,-1
 440 0 l 1,19,-1
 349 0 l 1,20,-1
 349 -110 l 1,21,-1
 283 -110 l 1,22,-1
 283 0 l 1,23,-1
 244 0 l 2,24,25
 94 0 94 0 94 150 c 2,0,-1
EndSplineSet
EndChar

StartChar: sterling
Encoding: 100 163 100
Width: 578
Flags: W
LayerCount: 2
Fore
SplineSet
64 0 m 1,0,-1
 64 76 l 1,1,-1
 154 76 l 1,2,-1
 154 312 l 1,3,-1
 64 312 l 1,4,-1
 64 378 l 1,5,-1
 154 378 l 1,6,-1
 154 537 l 2,7,8
 154 690 154 690 307 690 c 2,9,-1
 459 690 l 1,10,-1
 504 655 l 1,11,-1
 504 614 l 1,12,-1
 306 614 l 2,13,14
 238 614 238 614 238 546 c 2,15,-1
 238 378 l 1,16,-1
 418 378 l 1,17,-1
 418 312 l 1,18,-1
 238 312 l 1,19,-1
 238 76 l 1,20,-1
 524 76 l 1,21,-1
 524 0 l 1,22,-1
 64 0 l 1,0,-1
EndSplineSet
EndChar

StartChar: currency
Encoding: 101 164 101
Width: 578
Flags: W
LayerCount: 2
Fore
SplineSet
58 157 m 1,0,-1
 134 233 l 1,1,-1
 134 467 l 1,2,-1
 58 543 l 1,3,-1
 101 586 l 1,4,-1
 177 510 l 1,5,-1
 401 510 l 1,6,-1
 477 586 l 1,7,-1
 520 543 l 1,8,-1
 444 467 l 1,9,-1
 444 233 l 1,10,-1
 520 157 l 1,11,-1
 477 114 l 1,12,-1
 401 190 l 1,13,-1
 177 190 l 1,14,-1
 101 114 l 1,15,-1
 58 157 l 1,0,-1
198 280 m 2,16,17
 198 248 198 248 230 248 c 2,18,-1
 348 248 l 2,19,20
 380 248 380 248 380 280 c 2,21,-1
 380 420 l 2,22,23
 380 452 380 452 348 452 c 2,24,-1
 230 452 l 2,25,26
 198 452 198 452 198 420 c 2,27,-1
 198 280 l 2,16,17
EndSplineSet
EndChar

StartChar: yen
Encoding: 102 165 102
Width: 578
Flags: W
LayerCount: 2
Fore
SplineSet
30 672 m 1,0,-1
 41 690 l 1,1,-1
 112 690 l 1,2,-1
 289 361 l 1,3,-1
 466 690 l 1,4,-1
 537 690 l 1,5,-1
 548 672 l 1,6,-1
 355 320 l 1,7,-1
 481 320 l 1,8,-1
 481 258 l 1,9,-1
 331 258 l 1,10,-1
 331 182 l 1,11,-1
 481 182 l 1,12,-1
 481 120 l 1,13,-1
 331 120 l 1,14,-1
 331 0 l 1,15,-1
 247 0 l 1,16,-1
 247 120 l 1,17,-1
 97 120 l 1,18,-1
 97 182 l 1,19,-1
 247 182 l 1,20,-1
 247 258 l 1,21,-1
 97 258 l 1,22,-1
 97 320 l 1,23,-1
 223 320 l 1,24,-1
 30 672 l 1,0,-1
EndSplineSet
EndChar

StartChar: brokenbar
Encoding: 103 166 103
Width: 274
Flags: W
LayerCount: 2
Fore
SplineSet
100 170 m 1,0,-1
 174 170 l 1,1,-1
 174 -200 l 1,2,-1
 100 -200 l 1,3,-1
 100 170 l 1,0,-1
100 370 m 1,4,-1
 100 740 l 1,5,-1
 174 740 l 1,6,-1
 174 370 l 1,7,-1
 100 370 l 1,4,-1
EndSplineSet
EndChar

StartChar: section
Encoding: 104 167 104
Width: 540
Flags: W
LayerCount: 2
Fore
SplineSet
80 -30 m 1,0,-1
 310 -30 l 2,1,2
 380 -30 380 -30 380 40 c 256,3,4
 380 110 380 110 320 120 c 2,5,-1
 200 140 l 2,6,7
 80 160 80 160 80 272 c 2,8,-1
 80 380 l 1,9,-1
 128 428 l 1,10,11
 80 464 80 464 80 542 c 256,12,13
 80 690 80 690 230 690 c 2,14,-1
 396 690 l 1,15,-1
 436 660 l 1,16,-1
 436 620 l 1,17,-1
 230 620 l 2,18,19
 160 620 160 620 160 550 c 256,20,21
 160 480 160 480 220 470 c 2,22,-1
 340 450 l 2,23,24
 460 430 460 430 460 318 c 2,25,-1
 460 210 l 1,26,-1
 412 162 l 1,27,28
 460 126 460 126 460 48 c 256,29,30
 460 -100 460 -100 310 -100 c 2,31,-1
 120 -100 l 1,32,-1
 80 -70 l 1,33,-1
 80 -30 l 1,0,-1
160 280 m 2,34,35
 160 220 160 220 220 210 c 2,36,-1
 380 183 l 1,37,-1
 380 310 l 2,38,39
 380 370 380 370 320 380 c 2,40,-1
 160 407 l 1,41,-1
 160 280 l 2,34,35
EndSplineSet
EndChar

StartChar: copyright
Encoding: 106 169 106
Width: 840
Flags: W
LayerCount: 2
Fore
SplineSet
80 98 m 2,0,-1
 80 592 l 2,1,2
 80 690 80 690 178 690 c 2,3,-1
 662 690 l 2,4,5
 760 690 760 690 760 592 c 2,6,-1
 760 98 l 2,7,8
 760 0 760 0 662 0 c 2,9,-1
 178 0 l 2,10,11
 80 0 80 0 80 98 c 2,0,-1
140 88 m 2,12,13
 140 54 140 54 174 54 c 2,14,-1
 666 54 l 2,15,16
 700 54 700 54 700 88 c 2,17,-1
 700 602 l 2,18,19
 700 636 700 636 666 636 c 2,20,-1
 174 636 l 2,21,22
 140 636 140 636 140 602 c 2,23,-1
 140 88 l 2,12,13
260 250 m 2,24,-1
 260 440 l 2,25,26
 260 540 260 540 360 540 c 2,27,-1
 518 540 l 1,28,-1
 550 515 l 1,29,-1
 550 482 l 1,30,-1
 356 482 l 2,31,32
 324 482 324 482 324 450 c 2,33,-1
 324 240 l 2,34,35
 324 208 324 208 356 208 c 2,36,-1
 550 208 l 1,37,-1
 550 175 l 1,38,-1
 518 150 l 1,39,-1
 360 150 l 2,40,41
 260 150 260 150 260 250 c 2,24,-1
EndSplineSet
EndChar

StartChar: ordfeminine
Encoding: 107 170 107
Width: 400
Flags: W
LayerCount: 2
Fore
SplineSet
40 400 m 2,0,-1
 40 430 l 2,1,2
 40 530 40 530 140 530 c 2,3,-1
 286 530 l 1,4,-1
 286 600 l 2,5,6
 286 632 286 632 254 632 c 2,7,-1
 70 632 l 1,8,-1
 70 665 l 1,9,-1
 102 690 l 1,10,-1
 250 690 l 2,11,12
 350 690 350 690 350 590 c 2,13,-1
 350 300 l 1,14,-1
 140 300 l 2,15,16
 40 300 40 300 40 400 c 2,0,-1
104 390 m 2,17,18
 104 358 104 358 136 358 c 2,19,-1
 286 358 l 1,20,-1
 286 472 l 1,21,-1
 136 472 l 2,22,23
 104 472 104 472 104 440 c 2,24,-1
 104 390 l 2,17,18
EndSplineSet
EndChar

StartChar: logicalnot
Encoding: 109 172 109
Width: 578
Flags: W
LayerCount: 2
Fore
SplineSet
64 350 m 1,0,-1
 64 420 l 1,1,-1
 514 420 l 1,2,-1
 514 150 l 1,3,-1
 440 150 l 1,4,-1
 440 350 l 1,5,-1
 64 350 l 1,0,-1
EndSplineSet
EndChar

StartChar: registered
Encoding: 111 174 111
Width: 840
Flags: W
LayerCount: 2
Fore
SplineSet
80 98 m 2,0,-1
 80 592 l 2,1,2
 80 690 80 690 178 690 c 2,3,-1
 662 690 l 2,4,5
 760 690 760 690 760 592 c 2,6,-1
 760 98 l 2,7,8
 760 0 760 0 662 0 c 2,9,-1
 178 0 l 2,10,11
 80 0 80 0 80 98 c 2,0,-1
140 88 m 2,12,13
 140 54 140 54 174 54 c 2,14,-1
 666 54 l 2,15,16
 700 54 700 54 700 88 c 2,17,-1
 700 602 l 2,18,19
 700 636 700 636 666 636 c 2,20,-1
 174 636 l 2,21,22
 140 636 140 636 140 602 c 2,23,-1
 140 88 l 2,12,13
279 150 m 1,24,-1
 279 540 l 1,25,-1
 468 540 l 2,26,27
 568 540 568 540 568 440 c 2,28,-1
 568 395 l 2,29,30
 568 318 568 318 509 301 c 1,31,-1
 578 165 l 1,32,-1
 570 150 l 1,33,-1
 516 150 l 1,34,-1
 442 295 l 1,35,-1
 343 295 l 1,36,-1
 343 150 l 1,37,-1
 279 150 l 1,24,-1
343 353 m 1,38,-1
 472 353 l 2,39,40
 504 353 504 353 504 385 c 2,41,-1
 504 450 l 2,42,43
 504 482 504 482 472 482 c 2,44,-1
 343 482 l 1,45,-1
 343 353 l 1,38,-1
EndSplineSet
EndChar

StartChar: degree
Encoding: 113 176 113
Width: 410
Flags: W
LayerCount: 2
Fore
SplineSet
60 468 m 2,0,-1
 60 592 l 2,1,2
 60 690 60 690 158 690 c 2,3,-1
 252 690 l 2,4,5
 350 690 350 690 350 592 c 2,6,-1
 350 468 l 2,7,8
 350 370 350 370 252 370 c 2,9,-1
 158 370 l 2,10,11
 60 370 60 370 60 468 c 2,0,-1
120 458 m 2,12,13
 120 424 120 424 154 424 c 2,14,-1
 256 424 l 2,15,16
 290 424 290 424 290 458 c 2,17,-1
 290 602 l 2,18,19
 290 636 290 636 256 636 c 2,20,-1
 154 636 l 2,21,22
 120 636 120 636 120 602 c 2,23,-1
 120 458 l 2,12,13
EndSplineSet
EndChar

StartChar: plusminus
Encoding: 114 177 114
Width: 578
Flags: W
LayerCount: 2
Fore
SplineSet
64 0 m 1,0,-1
 64 70 l 1,1,-1
 514 70 l 1,2,-1
 514 0 l 1,3,-1
 64 0 l 1,0,-1
64 320 m 1,4,-1
 64 390 l 1,5,-1
 252 390 l 1,6,-1
 252 580 l 1,7,-1
 326 580 l 1,8,-1
 326 390 l 1,9,-1
 514 390 l 1,10,-1
 514 320 l 1,11,-1
 326 320 l 1,12,-1
 326 130 l 1,13,-1
 252 130 l 1,14,-1
 252 320 l 1,15,-1
 64 320 l 1,4,-1
EndSplineSet
EndChar

StartChar: uni00B2
Encoding: 115 178 115
Width: 360
Flags: W
LayerCount: 2
Fore
SplineSet
40 280 m 1,0,-1
 40 403 l 2,1,2
 40 484 40 484 115 499 c 10,3,-1
 225 521 l 2,4,5
 256 527 256 527 256 557 c 2,6,-1
 256 600 l 2,7,8
 256 632 256 632 224 632 c 2,9,-1
 52 632 l 1,10,-1
 52 665 l 1,11,-1
 84 690 l 1,12,-1
 220 690 l 2,13,14
 320 690 320 690 320 590 c 2,15,-1
 320 560 l 2,16,17
 320 479 320 479 245 464 c 10,18,-1
 135 442 l 2,19,20
 104 436 104 436 104 406 c 2,21,-1
 104 338 l 1,22,-1
 320 338 l 1,23,-1
 320 280 l 1,24,-1
 40 280 l 1,0,-1
EndSplineSet
EndChar

StartChar: uni00B3
Encoding: 116 179 116
Width: 360
Flags: W
LayerCount: 2
Fore
SplineSet
46 305 m 1,0,-1
 46 338 l 1,1,-1
 224 338 l 2,2,3
 256 338 256 338 256 370 c 2,4,-1
 256 430 l 2,5,6
 256 462 256 462 224 462 c 2,7,-1
 90 462 l 1,8,-1
 90 520 l 1,9,-1
 224 520 l 2,10,11
 256 520 256 520 256 552 c 2,12,-1
 256 600 l 2,13,14
 256 632 256 632 224 632 c 2,15,-1
 52 632 l 1,16,-1
 52 665 l 1,17,-1
 84 690 l 1,18,-1
 220 690 l 2,19,20
 320 690 320 690 320 590 c 2,21,-1
 320 560 l 2,22,23
 320 533 320 533 303 516 c 2,24,-1
 280 493 l 1,25,-1
 303 470 l 2,26,27
 320 453 320 453 320 426 c 2,28,-1
 320 380 l 2,29,30
 320 280 320 280 220 280 c 2,31,-1
 78 280 l 1,32,-1
 46 305 l 1,0,-1
EndSplineSet
EndChar

StartChar: mu
Encoding: 118 181 118
Width: 586
Flags: W
LayerCount: 2
Fore
SplineSet
80 -200 m 1,0,-1
 80 520 l 1,1,-1
 160 520 l 1,2,-1
 160 70 l 1,3,-1
 360 70 l 2,4,5
 430 70 430 70 430 140 c 2,6,-1
 430 520 l 1,7,-1
 510 520 l 1,8,-1
 510 150 l 2,9,10
 510 0 510 0 360 0 c 2,11,-1
 160 0 l 1,12,-1
 160 -200 l 1,13,-1
 80 -200 l 1,0,-1
EndSplineSet
EndChar

StartChar: paragraph
Encoding: 119 182 119
Width: 580
Flags: W
LayerCount: 2
Fore
SplineSet
70 390 m 2,0,-1
 70 540 l 2,1,2
 70 690 70 690 220 690 c 2,3,-1
 330 690 l 1,4,-1
 330 240 l 1,5,-1
 220 240 l 2,6,7
 70 240 70 240 70 390 c 2,0,-1
400 -170 m 1,8,-1
 400 690 l 1,9,-1
 480 690 l 1,10,-1
 480 -170 l 1,11,-1
 400 -170 l 1,8,-1
EndSplineSet
EndChar

StartChar: uni00B9
Encoding: 122 185 122
Width: 360
Flags: W
LayerCount: 2
Fore
SplineSet
58 280 m 1,0,-1
 58 338 l 1,1,-1
 159 338 l 1,2,-1
 159 632 l 1,3,-1
 79 632 l 1,4,-1
 79 665 l 1,5,-1
 111 690 l 1,6,-1
 223 690 l 1,7,-1
 223 338 l 1,8,-1
 314 338 l 1,9,-1
 314 280 l 1,10,-1
 58 280 l 1,0,-1
EndSplineSet
EndChar

StartChar: ordmasculine
Encoding: 123 186 123
Width: 430
Flags: W
LayerCount: 2
Fore
SplineSet
50 400 m 2,0,-1
 50 590 l 2,1,2
 50 690 50 690 150 690 c 2,3,-1
 280 690 l 2,4,5
 380 690 380 690 380 590 c 2,6,-1
 380 400 l 2,7,8
 380 300 380 300 280 300 c 2,9,-1
 150 300 l 2,10,11
 50 300 50 300 50 400 c 2,0,-1
114 390 m 2,12,13
 114 358 114 358 146 358 c 2,14,-1
 284 358 l 2,15,16
 316 358 316 358 316 390 c 2,17,-1
 316 600 l 2,18,19
 316 632 316 632 284 632 c 2,20,-1
 146 632 l 2,21,22
 114 632 114 632 114 600 c 2,23,-1
 114 390 l 2,12,13
EndSplineSet
EndChar

StartChar: questiondown
Encoding: 128 191 128
Width: 480
Flags: W
LayerCount: 2
Fore
SplineSet
50 -17 m 2,0,-1
 50 73 l 2,1,2
 50 226 50 226 203 226 c 2,3,-1
 245 226 l 1,4,-1
 245 310 l 1,5,-1
 330 310 l 1,6,-1
 330 150 l 1,7,-1
 202 150 l 2,8,9
 134 150 134 150 134 82 c 2,10,-1
 134 -26 l 2,11,12
 134 -94 134 -94 202 -94 c 2,13,-1
 460 -94 l 1,14,-1
 460 -135 l 1,15,-1
 415 -170 l 1,16,-1
 203 -170 l 2,17,18
 50 -170 50 -170 50 -17 c 2,0,-1
238 410 m 1,19,-1
 238 520 l 1,20,-1
 338 520 l 1,21,-1
 338 410 l 1,22,-1
 238 410 l 1,19,-1
EndSplineSet
EndChar

StartChar: AE
Encoding: 135 198 135
Width: 890
Flags: W
LayerCount: 2
Fore
SplineSet
20 18 m 1,0,-1
 246 690 l 1,1,-1
 840 690 l 1,2,-1
 840 614 l 1,3,-1
 504 614 l 1,4,-1
 504 400 l 1,5,-1
 810 400 l 1,6,-1
 810 324 l 1,7,-1
 504 324 l 1,8,-1
 504 76 l 1,9,-1
 840 76 l 1,10,-1
 840 0 l 1,11,-1
 420 0 l 1,12,-1
 420 174 l 1,13,-1
 158 174 l 1,14,-1
 101 0 l 1,15,-1
 32 0 l 1,16,-1
 20 18 l 1,0,-1
183 250 m 1,17,-1
 420 250 l 1,18,-1
 420 614 l 1,19,-1
 303 614 l 1,20,-1
 183 250 l 1,17,-1
EndSplineSet
EndChar

StartChar: Eth
Encoding: 145 208 145
Width: 690
Flags: W
LayerCount: 2
Fore
SplineSet
20 312 m 1,0,-1
 20 378 l 1,1,-1
 100 378 l 1,2,-1
 100 690 l 1,3,-1
 396 690 l 2,4,5
 620 690 620 690 620 466 c 2,6,-1
 620 224 l 2,7,8
 620 0 620 0 396 0 c 2,9,-1
 100 0 l 1,10,-1
 100 312 l 1,11,-1
 20 312 l 1,0,-1
184 76 m 1,12,-1
 396 76 l 2,13,14
 536 76 536 76 536 216 c 2,15,-1
 536 474 l 2,16,17
 536 614 536 614 396 614 c 2,18,-1
 184 614 l 1,19,-1
 184 378 l 1,20,-1
 360 378 l 1,21,-1
 360 312 l 1,22,-1
 184 312 l 1,23,-1
 184 76 l 1,12,-1
EndSplineSet
EndChar

StartChar: multiply
Encoding: 152 215 152
Width: 578
Flags: W
LayerCount: 2
Fore
SplineSet
84 180 m 1,0,-1
 239 335 l 1,1,-1
 84 490 l 1,2,-1
 134 540 l 1,3,-1
 289 385 l 1,4,-1
 444 540 l 1,5,-1
 494 490 l 1,6,-1
 339 335 l 1,7,-1
 494 180 l 1,8,-1
 444 130 l 1,9,-1
 289 285 l 1,10,-1
 134 130 l 1,11,-1
 84 180 l 1,0,-1
EndSplineSet
EndChar

StartChar: Oslash
Encoding: 153 216 153
Width: 700
Flags: W
LayerCount: 2
Fore
SplineSet
80 153 m 2,0,-1
 80 537 l 2,1,2
 80 690 80 690 233 690 c 2,3,-1
 467 690 l 2,4,5
 620 690 620 690 620 537 c 2,6,-1
 620 153 l 2,7,8
 620 0 620 0 467 0 c 2,9,-1
 233 0 l 2,10,11
 80 0 80 0 80 153 c 2,0,-1
164 221 m 1,12,-1
 535 555 l 1,13,14
 531 614 531 614 468 614 c 2,15,-1
 232 614 l 2,16,17
 164 614 164 614 164 546 c 2,18,-1
 164 221 l 1,12,-1
165 135 m 1,19,20
 169 76 169 76 232 76 c 2,21,-1
 468 76 l 2,22,23
 536 76 536 76 536 144 c 2,24,-1
 536 469 l 1,25,-1
 165 135 l 1,19,20
EndSplineSet
EndChar

StartChar: Thorn
Encoding: 159 222 159
Width: 630
Flags: W
LayerCount: 2
Fore
SplineSet
90 0 m 1,0,-1
 90 690 l 1,1,-1
 174 690 l 1,2,-1
 174 570 l 1,3,-1
 417 570 l 2,4,5
 570 570 570 570 570 417 c 2,6,-1
 570 287 l 2,7,8
 570 134 570 134 417 134 c 2,9,-1
 174 134 l 1,10,-1
 174 0 l 1,11,-1
 90 0 l 1,0,-1
174 210 m 1,12,-1
 418 210 l 2,13,14
 486 210 486 210 486 278 c 2,15,-1
 486 426 l 2,16,17
 486 494 486 494 418 494 c 2,18,-1
 174 494 l 1,19,-1
 174 210 l 1,12,-1
EndSplineSet
EndChar

StartChar: germandbls
Encoding: 160 223 160
Width: 602
Flags: W
LayerCount: 2
Fore
SplineSet
80 0 m 1,0,-1
 80 590 l 2,1,2
 80 740 80 740 230 740 c 2,3,-1
 360 740 l 2,4,5
 510 740 510 740 510 590 c 2,6,-1
 510 491 l 2,7,8
 510 457 510 457 490 433 c 2,9,-1
 455 391 l 1,10,-1
 497 356 l 2,11,12
 530 328 530 328 530 276 c 2,13,-1
 530 150 l 2,14,15
 530 0 530 0 380 0 c 2,16,-1
 290 0 l 1,17,-1
 250 30 l 1,18,-1
 250 70 l 1,19,-1
 380 70 l 2,20,21
 450 70 450 70 450 140 c 2,22,-1
 450 280 l 2,23,24
 450 350 450 350 380 350 c 2,25,-1
 260 350 l 1,26,-1
 260 420 l 1,27,-1
 360 420 l 2,28,29
 430 420 430 420 430 490 c 2,30,-1
 430 600 l 2,31,32
 430 670 430 670 360 670 c 2,33,-1
 230 670 l 2,34,35
 160 670 160 670 160 600 c 2,36,-1
 160 0 l 1,37,-1
 80 0 l 1,0,-1
EndSplineSet
EndChar

StartChar: ae
Encoding: 167 230 167
Width: 874
Flags: W
LayerCount: 2
Fore
SplineSet
203 0 m 2,0,1
 52 0 52 0 52 151 c 128,-1,2
 52 302 52 302 203 302 c 2,3,-1
 382 302 l 1,4,-1
 382 380 l 2,5,6
 382 450 382 450 312 450 c 2,7,-1
 102 450 l 1,8,-1
 102 490 l 1,9,-1
 142 520 l 1,10,-1
 312 520 l 2,11,12
 382 520 382 520 422 480 c 1,13,14
 462 520 462 520 532 520 c 2,15,-1
 652 520 l 2,16,17
 802 520 802 520 802 370 c 2,18,-1
 802 226 l 1,19,-1
 462 226 l 1,20,-1
 462 140 l 2,21,22
 462 70 462 70 532 70 c 2,23,-1
 782 70 l 1,24,-1
 782 30 l 1,25,-1
 742 0 l 1,26,-1
 532 0 l 2,27,28
 462 0 462 0 422 40 c 1,29,30
 382 0 382 0 312 0 c 2,31,-1
 203 0 l 2,0,1
132 140 m 2,32,33
 132 70 132 70 202 70 c 2,34,-1
 312 70 l 2,35,36
 382 70 382 70 382 140 c 2,37,-1
 382 232 l 1,38,-1
 202 232 l 2,39,40
 132 232 132 232 132 162 c 2,41,-1
 132 140 l 2,32,33
462 296 m 1,42,-1
 722 296 l 1,43,-1
 722 380 l 2,44,45
 722 450 722 450 652 450 c 2,46,-1
 532 450 l 2,47,48
 462 450 462 450 462 380 c 2,49,-1
 462 296 l 1,42,-1
EndSplineSet
EndChar

StartChar: eth
Encoding: 177 240 177
Width: 584
Flags: W
LayerCount: 2
Fore
SplineSet
72 150 m 2,0,-1
 72 300 l 2,1,2
 72 450 72 450 222 450 c 2,3,-1
 402 450 l 1,4,-1
 324 573 l 1,5,-1
 215 521 l 1,6,-1
 189 577 l 1,7,-1
 291 626 l 1,8,-1
 238 709 l 1,9,-1
 302 750 l 1,10,-1
 360 659 l 1,11,-1
 466 709 l 1,12,-1
 492 653 l 1,13,-1
 393 606 l 1,14,-1
 478 471 l 2,15,16
 512 417 512 417 512 364 c 2,17,-1
 512 150 l 2,18,19
 512 0 512 0 362 0 c 2,20,-1
 222 0 l 2,21,22
 72 0 72 0 72 150 c 2,0,-1
152 140 m 2,23,24
 152 70 152 70 222 70 c 2,25,-1
 362 70 l 2,26,27
 432 70 432 70 432 140 c 2,28,-1
 432 380 l 1,29,-1
 222 380 l 2,30,31
 152 380 152 380 152 310 c 2,32,-1
 152 140 l 2,23,24
EndSplineSet
EndChar

StartChar: divide
Encoding: 184 247 184
Width: 578
Flags: W
LayerCount: 2
Fore
SplineSet
64 300 m 1,0,-1
 64 370 l 1,1,-1
 514 370 l 1,2,-1
 514 300 l 1,3,-1
 64 300 l 1,0,-1
244 100 m 1,4,-1
 244 190 l 1,5,-1
 334 190 l 1,6,-1
 334 100 l 1,7,-1
 244 100 l 1,4,-1
244 480 m 1,8,-1
 244 570 l 1,9,-1
 334 570 l 1,10,-1
 334 480 l 1,11,-1
 244 480 l 1,8,-1
EndSplineSet
EndChar

StartChar: oslash
Encoding: 185 248 185
Width: 584
Flags: W
LayerCount: 2
Fore
SplineSet
72 150 m 2,0,-1
 72 370 l 2,1,2
 72 520 72 520 222 520 c 2,3,-1
 362 520 l 2,4,5
 512 520 512 520 512 370 c 2,6,-1
 512 150 l 2,7,8
 512 0 512 0 362 0 c 2,9,-1
 222 0 l 2,10,11
 72 0 72 0 72 150 c 2,0,-1
152 174 m 1,12,-1
 424 419 l 1,13,14
 408 450 408 450 362 450 c 2,15,-1
 222 450 l 2,16,17
 152 450 152 450 152 380 c 2,18,-1
 152 174 l 1,12,-1
160 101 m 1,19,20
 176 70 176 70 222 70 c 2,21,-1
 362 70 l 2,22,23
 432 70 432 70 432 140 c 2,24,-1
 432 346 l 1,25,-1
 160 101 l 1,19,20
EndSplineSet
EndChar

StartChar: thorn
Encoding: 191 254 191
Width: 582
Flags: W
LayerCount: 2
Fore
SplineSet
80 -200 m 1,0,-1
 80 740 l 1,1,-1
 160 740 l 1,2,-1
 160 520 l 1,3,-1
 360 520 l 2,4,5
 510 520 510 520 510 370 c 2,6,-1
 510 150 l 2,7,8
 510 0 510 0 360 0 c 2,9,-1
 160 0 l 1,10,-1
 160 -200 l 1,11,-1
 80 -200 l 1,0,-1
160 70 m 1,12,-1
 360 70 l 2,13,14
 430 70 430 70 430 140 c 2,15,-1
 430 380 l 2,16,17
 430 450 430 450 360 450 c 2,18,-1
 160 450 l 1,19,-1
 160 70 l 1,12,-1
EndSplineSet
EndChar

StartChar: dcroat
Encoding: 206 273 206
Width: 582
Flags: W
LayerCount: 2
Fore
SplineSet
72 150 m 2,0,-1
 72 370 l 2,1,2
 72 520 72 520 222 520 c 2,3,-1
 422 520 l 1,4,-1
 422 600 l 1,5,-1
 242 600 l 1,6,-1
 242 660 l 1,7,-1
 422 660 l 1,8,-1
 422 740 l 1,9,-1
 502 740 l 1,10,-1
 502 660 l 1,11,-1
 572 660 l 1,12,-1
 572 600 l 1,13,-1
 502 600 l 1,14,-1
 502 0 l 1,15,-1
 222 0 l 2,16,17
 72 0 72 0 72 150 c 2,0,-1
152 140 m 2,18,19
 152 70 152 70 222 70 c 2,20,-1
 422 70 l 1,21,-1
 422 450 l 1,22,-1
 222 450 l 2,23,24
 152 450 152 450 152 380 c 2,25,-1
 152 140 l 2,18,19
EndSplineSet
EndChar

StartChar: dotlessi
Encoding: 224 305 224
Width: 240
Flags: W
LayerCount: 2
Fore
SplineSet
80 0 m 1,0,-1
 80 520 l 1,1,-1
 160 520 l 1,2,-1
 160 0 l 1,3,-1
 80 0 l 1,0,-1
EndSplineSet
EndChar

StartChar: Lslash
Encoding: 233 321 233
Width: 544
Flags: W
LayerCount: 2
Fore
SplineSet
10 283 m 1,0,-1
 100 335 l 1,1,-1
 100 690 l 1,2,-1
 184 690 l 1,3,-1
 184 383 l 1,4,-1
 320 462 l 1,5,-1
 353 405 l 1,6,-1
 184 308 l 1,7,-1
 184 76 l 1,8,-1
 520 76 l 1,9,-1
 520 0 l 1,10,-1
 100 0 l 1,11,-1
 100 259 l 1,12,-1
 43 226 l 1,13,-1
 10 283 l 1,0,-1
EndSplineSet
EndChar

StartChar: lslash
Encoding: 234 322 234
Width: 276
Flags: W
LayerCount: 2
Fore
SplineSet
3 335 m 1,0,-1
 86 383 l 1,1,-1
 86 740 l 1,2,-1
 166 740 l 1,3,-1
 166 429 l 1,4,-1
 240 472 l 1,5,-1
 271 418 l 1,6,-1
 166 358 l 1,7,-1
 166 134 l 2,8,9
 166 66 166 66 236 62 c 1,10,-1
 236 -8 l 1,11,12
 86 -8 86 -8 86 142 c 2,13,-1
 86 312 l 1,14,-1
 34 281 l 1,15,-1
 3 335 l 1,0,-1
EndSplineSet
EndChar

StartChar: OE
Encoding: 245 338 245
Width: 962
Flags: W
LayerCount: 2
Fore
SplineSet
80 153 m 2,0,-1
 80 537 l 2,1,2
 80 690 80 690 233 690 c 2,3,-1
 912 690 l 1,4,-1
 912 614 l 1,5,-1
 576 614 l 1,6,-1
 576 400 l 1,7,-1
 882 400 l 1,8,-1
 882 324 l 1,9,-1
 576 324 l 1,10,-1
 576 76 l 1,11,-1
 912 76 l 1,12,-1
 912 0 l 1,13,-1
 233 0 l 2,14,15
 80 0 80 0 80 153 c 2,0,-1
164 144 m 2,16,17
 164 76 164 76 232 76 c 2,18,-1
 492 76 l 1,19,-1
 492 614 l 1,20,-1
 232 614 l 2,21,22
 164 614 164 614 164 546 c 2,23,-1
 164 144 l 2,16,17
EndSplineSet
EndChar

StartChar: oe
Encoding: 246 339 246
Width: 914
Flags: W
LayerCount: 2
Fore
SplineSet
72 150 m 2,0,-1
 72 370 l 2,1,2
 72 520 72 520 222 520 c 2,3,-1
 352 520 l 2,4,5
 422 520 422 520 462 480 c 1,6,7
 502 520 502 520 572 520 c 2,8,-1
 692 520 l 2,9,10
 842 520 842 520 842 370 c 2,11,-1
 842 226 l 1,12,-1
 502 226 l 1,13,-1
 502 140 l 2,14,15
 502 70 502 70 572 70 c 2,16,-1
 822 70 l 1,17,-1
 822 30 l 1,18,-1
 782 0 l 1,19,-1
 572 0 l 2,20,21
 502 0 502 0 462 40 c 1,22,23
 422 0 422 0 352 0 c 2,24,-1
 222 0 l 2,25,26
 72 0 72 0 72 150 c 2,0,-1
152 140 m 2,27,28
 152 70 152 70 222 70 c 2,29,-1
 352 70 l 2,30,31
 422 70 422 70 422 140 c 2,32,-1
 422 380 l 2,33,34
 422 450 422 450 352 450 c 2,35,-1
 222 450 l 2,36,37
 152 450 152 450 152 380 c 2,38,-1
 152 140 l 2,27,28
502 296 m 1,39,-1
 762 296 l 1,40,-1
 762 380 l 2,41,42
 762 450 762 450 692 450 c 2,43,-1
 572 450 l 2,44,45
 502 450 502 450 502 380 c 2,46,-1
 502 296 l 1,39,-1
EndSplineSet
EndChar

StartChar: florin
Encoding: 278 402 278
Width: 570
Flags: W
LayerCount: 2
Fore
SplineSet
40 -70 m 1,0,-1
 120 -70 l 2,1,2
 190 -70 190 -70 190 0 c 2,3,-1
 190 590 l 2,4,5
 190 740 190 740 340 740 c 2,6,-1
 430 740 l 1,7,-1
 470 710 l 1,8,-1
 470 670 l 1,9,-1
 340 670 l 2,10,11
 270 670 270 670 270 600 c 2,12,-1
 270 520 l 1,13,-1
 460 520 l 1,14,-1
 460 450 l 1,15,-1
 270 450 l 1,16,-1
 270 10 l 2,17,18
 270 -140 270 -140 120 -140 c 2,19,-1
 80 -140 l 1,20,-1
 40 -110 l 1,21,-1
 40 -70 l 1,0,-1
EndSplineSet
EndChar

StartChar: uni0237
Encoding: 283 567 283
Width: 240
Flags: W
LayerCount: 2
Fore
SplineSet
-8 -138 m 1,0,1
 80 -134 80 -134 80 -48 c 2,2,-1
 80 520 l 1,3,-1
 160 520 l 1,4,-1
 160 -40 l 2,5,6
 160 -208 160 -208 -8 -208 c 1,7,-1
 -8 -138 l 1,0,1
EndSplineSet
EndChar

StartChar: uni0300
Encoding: 293 768 293
Width: 0
Flags: W
LayerCount: 2
Fore
SplineSet
-404 709 m 1,0,-1
 -352 758 l 1,1,-1
 -224 613 l 1,2,-1
 -267 572 l 1,3,-1
 -404 709 l 1,0,-1
EndSplineSet
EndChar

StartChar: uni0301
Encoding: 294 769 294
Width: 0
Flags: W
LayerCount: 2
Fore
SplineSet
-348 613 m 1,0,-1
 -220 758 l 1,1,-1
 -168 709 l 1,2,-1
 -305 572 l 1,3,-1
 -348 613 l 1,0,-1
EndSplineSet
EndChar

StartChar: uni0302
Encoding: 295 770 295
Width: 0
Flags: W
LayerCount: 2
Fore
SplineSet
-424 623 m 1,0,-1
 -286 758 l 1,1,-1
 -148 623 l 1,2,-1
 -187 582 l 1,3,-1
 -286 676 l 1,4,-1
 -385 582 l 1,5,-1
 -424 623 l 1,0,-1
EndSplineSet
EndChar

StartChar: uni0303
Encoding: 296 771 296
Width: 0
Flags: W
LayerCount: 2
Fore
SplineSet
-441 638 m 1,0,-1
 -387 692 l 2,1,2
 -365 714 -365 714 -336 714 c 128,-1,3
 -307 714 -307 714 -285 692 c 2,4,-1
 -253 660 l 2,5,6
 -245 652 -245 652 -236 652 c 128,-1,7
 -227 652 -227 652 -219 660 c 2,8,-1
 -170 709 l 1,9,-1
 -131 670 l 1,10,-1
 -185 616 l 2,11,12
 -207 594 -207 594 -236 594 c 128,-1,13
 -265 594 -265 594 -287 616 c 2,14,-1
 -319 648 l 2,15,16
 -327 656 -327 656 -336 656 c 128,-1,17
 -345 656 -345 656 -353 648 c 2,18,-1
 -402 599 l 1,19,-1
 -441 638 l 1,0,-1
EndSplineSet
EndChar

StartChar: uni0304
Encoding: 297 772 297
Width: 0
Flags: W
LayerCount: 2
Fore
SplineSet
-416 625 m 1,0,-1
 -416 689 l 1,1,-1
 -156 689 l 1,2,-1
 -156 625 l 1,3,-1
 -416 625 l 1,0,-1
EndSplineSet
EndChar

StartChar: uni0306
Encoding: 298 774 298
Width: 0
Flags: W
LayerCount: 2
Fore
SplineSet
-411 670 m 2,0,-1
 -411 728 l 1,1,-1
 -357 728 l 1,2,-1
 -357 670 l 2,3,4
 -357 652 -357 652 -339 652 c 2,5,-1
 -233 652 l 2,6,7
 -215 652 -215 652 -215 670 c 2,8,-1
 -215 728 l 1,9,-1
 -161 728 l 1,10,-1
 -161 670 l 2,11,12
 -161 598 -161 598 -233 598 c 2,13,-1
 -339 598 l 2,14,15
 -411 598 -411 598 -411 670 c 2,0,-1
EndSplineSet
EndChar

StartChar: uni0307
Encoding: 299 775 299
Width: 0
Flags: W
LayerCount: 2
Fore
SplineSet
-328 614 m 1,0,-1
 -328 706 l 1,1,-1
 -244 706 l 1,2,-1
 -244 614 l 1,3,-1
 -328 614 l 1,0,-1
EndSplineSet
EndChar

StartChar: uni0308
Encoding: 300 776 300
Width: 0
Flags: W
LayerCount: 2
Fore
SplineSet
-416 614 m 1,0,-1
 -416 702 l 1,1,-1
 -336 702 l 1,2,-1
 -336 614 l 1,3,-1
 -416 614 l 1,0,-1
-236 614 m 1,4,-1
 -236 702 l 1,5,-1
 -156 702 l 1,6,-1
 -156 614 l 1,7,-1
 -236 614 l 1,4,-1
EndSplineSet
EndChar

StartChar: uni030A
Encoding: 301 778 301
Width: 0
Flags: W
LayerCount: 2
Fore
SplineSet
-388 642 m 2,0,-1
 -388 698 l 2,1,2
 -388 768 -388 768 -318 768 c 2,3,-1
 -254 768 l 2,4,5
 -184 768 -184 768 -184 698 c 2,6,-1
 -184 642 l 2,7,8
 -184 572 -184 572 -254 572 c 2,9,-1
 -318 572 l 2,10,11
 -388 572 -388 572 -388 642 c 2,0,-1
-336 638 m 2,12,13
 -336 618 -336 618 -316 618 c 2,14,-1
 -256 618 l 2,15,16
 -236 618 -236 618 -236 638 c 2,17,-1
 -236 702 l 2,18,19
 -236 722 -236 722 -256 722 c 2,20,-1
 -316 722 l 2,21,22
 -336 722 -336 722 -336 702 c 2,23,-1
 -336 638 l 2,12,13
EndSplineSet
EndChar

StartChar: uni030B
Encoding: 302 779 302
Width: 0
Flags: W
LayerCount: 2
Fore
SplineSet
-414 609 m 1,0,-1
 -302 758 l 1,1,-1
 -248 714 l 1,2,-1
 -370 572 l 1,3,-1
 -414 609 l 1,0,-1
-249 609 m 1,4,-1
 -137 758 l 1,5,-1
 -83 714 l 1,6,-1
 -205 572 l 1,7,-1
 -249 609 l 1,4,-1
EndSplineSet
EndChar

StartChar: uni030C
Encoding: 303 780 303
Width: 0
Flags: W
LayerCount: 2
Fore
SplineSet
-424 707 m 1,0,-1
 -385 748 l 1,1,-1
 -286 654 l 1,2,-1
 -187 748 l 1,3,-1
 -148 707 l 1,4,-1
 -286 572 l 1,5,-1
 -424 707 l 1,0,-1
EndSplineSet
EndChar

StartChar: uni0326
Encoding: 304 806 304
Width: 0
Flags: W
LayerCount: 2
Fore
SplineSet
-356 -184 m 1,0,-1
 -324 -50 l 1,1,-1
 -253 -50 l 1,2,-1
 -244 -64 l 1,3,-1
 -300 -200 l 1,4,-1
 -356 -184 l 1,0,-1
EndSplineSet
EndChar

StartChar: uni0327
Encoding: 305 807 305
Width: 0
Flags: W
LayerCount: 2
Fore
SplineSet
-396 -122 m 1,0,-1
 -296 -122 l 2,1,2
 -264 -122 -264 -122 -264 -90 c 2,3,-1
 -264 35 l 1,4,-1
 -200 35 l 1,5,-1
 -200 -80 l 2,6,7
 -200 -180 -200 -180 -300 -180 c 2,8,-1
 -364 -180 l 1,9,-1
 -396 -155 l 1,10,-1
 -396 -122 l 1,0,-1
EndSplineSet
EndChar

StartChar: uni0328
Encoding: 306 808 306
Width: 0
Flags: W
LayerCount: 2
Fore
SplineSet
-360 -42 m 2,0,1
 -360 58 -360 58 -260 58 c 2,2,-1
 -236 58 l 1,3,-1
 -236 0 l 1,4,-1
 -264 0 l 2,5,6
 -296 0 -296 0 -296 -32 c 2,7,-1
 -296 -90 l 2,8,9
 -296 -122 -296 -122 -264 -122 c 2,10,-1
 -168 -122 l 1,11,-1
 -168 -155 l 1,12,-1
 -200 -180 l 1,13,-1
 -260 -180 l 2,14,15
 -360 -180 -360 -180 -360 -80 c 2,16,-1
 -360 -42 l 2,0,1
EndSplineSet
EndChar

StartChar: pi
Encoding: 307 960 307
Width: 590
Flags: W
LayerCount: 2
Fore
SplineSet
80 0 m 1,0,-1
 80 520 l 1,1,-1
 510 520 l 1,2,-1
 510 0 l 1,3,-1
 430 0 l 1,4,-1
 430 450 l 1,5,-1
 160 450 l 1,6,-1
 160 0 l 1,7,-1
 80 0 l 1,0,-1
EndSplineSet
EndChar

StartChar: uni1E9E
Encoding: 308 7838 308
Width: 684
Flags: W
LayerCount: 2
Fore
SplineSet
84 0 m 1,0,-1
 84 537 l 2,1,2
 84 690 84 690 237 690 c 2,3,-1
 564 690 l 1,4,-1
 564 623 l 1,5,-1
 396 400 l 1,6,-1
 471 400 l 2,7,8
 624 400 624 400 624 247 c 2,9,-1
 624 153 l 2,10,11
 624 0 624 0 471 0 c 2,12,-1
 319 0 l 1,13,-1
 274 35 l 1,14,-1
 274 76 l 1,15,-1
 472 76 l 2,16,17
 540 76 540 76 540 144 c 2,18,-1
 540 256 l 2,19,20
 540 324 540 324 472 324 c 2,21,-1
 294 324 l 1,22,-1
 294 391 l 1,23,-1
 462 614 l 1,24,-1
 236 614 l 2,25,26
 168 614 168 614 168 546 c 2,27,-1
 168 0 l 1,28,-1
 84 0 l 1,0,-1
EndSplineSet
EndChar

StartChar: endash
Encoding: 309 8211 309
Width: 580
Flags: W
LayerCount: 2
Fore
SplineSet
40 270 m 1,0,-1
 40 340 l 1,1,-1
 540 340 l 1,2,-1
 540 270 l 1,3,-1
 40 270 l 1,0,-1
EndSplineSet
EndChar

StartChar: emdash
Encoding: 310 8212 310
Width: 1000
Flags: W
LayerCount: 2
Fore
SplineSet
40 270 m 1,0,-1
 40 340 l 1,1,-1
 960 340 l 1,2,-1
 960 270 l 1,3,-1
 40 270 l 1,0,-1
EndSplineSet
EndChar

StartChar: quoteleft
Encoding: 311 8216 311
Width: 260
Flags: W
LayerCount: 2
Fore
SplineSet
60 514 m 1,0,-1
 150 750 l 1,1,-1
 210 735 l 1,2,-1
 151 500 l 1,3,-1
 69 500 l 1,4,-1
 60 514 l 1,0,-1
EndSplineSet
EndChar

StartChar: quoteright
Encoding: 312 8217 312
Width: 260
Flags: W
LayerCount: 2
Fore
SplineSet
56 505 m 1,0,-1
 115 740 l 1,1,-1
 197 740 l 1,2,-1
 206 726 l 1,3,-1
 116 490 l 1,4,-1
 56 505 l 1,0,-1
EndSplineSet
EndChar

StartChar: quotesinglbase
Encoding: 313 8218 313
Width: 260
Flags: W
LayerCount: 2
Fore
SplineSet
32 -125 m 1,0,-1
 91 110 l 1,1,-1
 173 110 l 1,2,-1
 182 96 l 1,3,-1
 92 -140 l 1,4,-1
 32 -125 l 1,0,-1
EndSplineSet
EndChar

StartChar: dagger
Encoding: 317 8224 317
Width: 490
Flags: W
LayerCount: 2
Fore
SplineSet
50 420 m 1,0,-1
 50 490 l 1,1,-1
 208 490 l 1,2,-1
 208 690 l 1,3,-1
 282 690 l 1,4,-1
 282 490 l 1,5,-1
 440 490 l 1,6,-1
 440 420 l 1,7,-1
 282 420 l 1,8,-1
 282 -100 l 1,9,-1
 208 -100 l 1,10,-1
 208 420 l 1,11,-1
 50 420 l 1,0,-1
EndSplineSet
EndChar

StartChar: daggerdbl
Encoding: 318 8225 318
Width: 490
Flags: W
LayerCount: 2
Fore
SplineSet
50 100 m 1,0,-1
 50 170 l 1,1,-1
 208 170 l 1,2,-1
 208 420 l 1,3,-1
 50 420 l 1,4,-1
 50 490 l 1,5,-1
 208 490 l 1,6,-1
 208 690 l 1,7,-1
 282 690 l 1,8,-1
 282 490 l 1,9,-1
 440 490 l 1,10,-1
 440 420 l 1,11,-1
 282 420 l 1,12,-1
 282 170 l 1,13,-1
 440 170 l 1,14,-1
 440 100 l 1,15,-1
 282 100 l 1,16,-1
 282 -100 l 1,17,-1
 208 -100 l 1,18,-1
 208 100 l 1,19,-1
 50 100 l 1,0,-1
EndSplineSet
EndChar

StartChar: bullet
Encoding: 319 8226 319
Width: 360
Flags: W
LayerCount: 2
Fore
SplineSet
80 260 m 1,0,-1
 80 460 l 1,1,-1
 280 460 l 1,2,-1
 280 260 l 1,3,-1
 80 260 l 1,0,-1
EndSplineSet
EndChar

StartChar: guilsinglleft
Encoding: 322 8249 322
Width: 300
Flags: W
LayerCount: 2
Fore
SplineSet
30 315 m 1,0,-1
 209 540 l 1,1,-1
 260 498 l 1,2,-1
 119 315 l 1,3,-1
 260 132 l 1,4,-1
 209 90 l 1,5,-1
 30 315 l 1,0,-1
EndSplineSet
EndChar

StartChar: guilsinglright
Encoding: 323 8250 323
Width: 300
Flags: W
LayerCount: 2
Fore
SplineSet
40 132 m 1,0,-1
 181 315 l 1,1,-1
 40 498 l 1,2,-1
 91 540 l 1,3,-1
 270 315 l 1,4,-1
 91 90 l 1,5,-1
 40 132 l 1,0,-1
EndSplineSet
EndChar

StartChar: fraction
Encoding: 324 8260 324
Width: 140
Flags: W
LayerCount: 2
Fore
SplineSet
-125 30 m 1,0,-1
 205 690 l 1,1,-1
 265 660 l 1,2,-1
 -65 0 l 1,3,-1
 -125 30 l 1,0,-1
EndSplineSet
EndChar

StartChar: uni2070
Encoding: 325 8304 325
Width: 360
Flags: W
LayerCount: 2
Fore
SplineSet
40 380 m 2,0,-1
 40 590 l 2,1,2
 40 690 40 690 140 690 c 2,3,-1
 220 690 l 2,4,5
 320 690 320 690 320 590 c 2,6,-1
 320 380 l 2,7,8
 320 280 320 280 220 280 c 2,9,-1
 140 280 l 2,10,11
 40 280 40 280 40 380 c 2,0,-1
104 370 m 2,12,13
 104 338 104 338 136 338 c 2,14,-1
 224 338 l 2,15,16
 256 338 256 338 256 370 c 2,17,-1
 256 600 l 2,18,19
 256 632 256 632 224 632 c 2,20,-1
 136 632 l 2,21,22
 104 632 104 632 104 600 c 2,23,-1
 104 370 l 2,12,13
EndSplineSet
EndChar

StartChar: uni2074
Encoding: 326 8308 326
Width: 360
Flags: W
LayerCount: 2
Fore
SplineSet
40 352 m 1,0,-1
 40 405 l 1,1,-1
 174 690 l 1,2,-1
 230 690 l 1,3,-1
 238 676 l 1,4,-1
 113 410 l 1,5,-1
 256 410 l 1,6,-1
 256 540 l 1,7,-1
 320 540 l 1,8,-1
 320 280 l 1,9,-1
 256 280 l 1,10,-1
 256 352 l 1,11,-1
 40 352 l 1,0,-1
EndSplineSet
EndChar

StartChar: Euro
Encoding: 332 8364 332
Width: 578
Flags: W
LayerCount: 2
Fore
SplineSet
34 245 m 1,0,-1
 34 307 l 1,1,-1
 104 307 l 1,2,-1
 104 383 l 1,3,-1
 34 383 l 1,4,-1
 34 445 l 1,5,-1
 104 445 l 1,6,-1
 104 537 l 2,7,8
 104 690 104 690 257 690 c 2,9,-1
 489 690 l 1,10,-1
 534 655 l 1,11,-1
 534 614 l 1,12,-1
 256 614 l 2,13,14
 188 614 188 614 188 546 c 2,15,-1
 188 445 l 1,16,-1
 460 445 l 1,17,-1
 460 383 l 1,18,-1
 188 383 l 1,19,-1
 188 307 l 1,20,-1
 416 307 l 1,21,-1
 416 245 l 1,22,-1
 188 245 l 1,23,-1
 188 144 l 2,24,25
 188 76 188 76 256 76 c 2,26,-1
 534 76 l 1,27,-1
 534 35 l 1,28,-1
 489 0 l 1,29,-1
 257 0 l 2,30,31
 104 0 104 0 104 153 c 2,32,-1
 104 245 l 1,33,-1
 34 245 l 1,0,-1
EndSplineSet
EndChar

StartChar: uni20BA
Encoding: 333 8378 333
Width: 578
Flags: W
LayerCount: 2
Fore
SplineSet
24 304 m 1,0,-1
 124 344 l 1,1,-1
 124 417 l 1,2,-1
 47 386 l 1,3,-1
 24 444 l 1,4,-1
 124 484 l 1,5,-1
 124 690 l 1,6,-1
 208 690 l 1,7,-1
 208 518 l 1,8,-1
 398 594 l 1,9,-1
 421 536 l 1,10,-1
 208 451 l 1,11,-1
 208 378 l 1,12,-1
 398 454 l 1,13,-1
 421 396 l 1,14,-1
 208 311 l 1,15,-1
 208 76 l 1,16,-1
 279 76 l 2,17,18
 444 76 444 76 444 241 c 2,19,-1
 444 300 l 1,20,-1
 524 300 l 1,21,-1
 524 250 l 2,22,23
 524 0 524 0 274 0 c 2,24,-1
 124 0 l 1,25,-1
 124 277 l 1,26,-1
 47 246 l 1,27,-1
 24 304 l 1,0,-1
EndSplineSet
EndChar

StartChar: uni20BD
Encoding: 334 8381 334
Width: 578
Flags: W
LayerCount: 2
Fore
SplineSet
44 174 m 1,0,-1
 44 240 l 1,1,-1
 94 240 l 1,2,-1
 94 310 l 1,3,-1
 44 310 l 1,4,-1
 44 380 l 1,5,-1
 94 380 l 1,6,-1
 94 690 l 1,7,-1
 371 690 l 2,8,9
 524 690 524 690 524 537 c 2,10,-1
 524 463 l 2,11,12
 524 310 524 310 371 310 c 2,13,-1
 178 310 l 1,14,-1
 178 240 l 1,15,-1
 398 240 l 1,16,-1
 398 174 l 1,17,-1
 178 174 l 1,18,-1
 178 0 l 1,19,-1
 94 0 l 1,20,-1
 94 174 l 1,21,-1
 44 174 l 1,0,-1
178 380 m 1,22,-1
 372 380 l 2,23,24
 440 380 440 380 440 448 c 2,25,-1
 440 546 l 2,26,27
 440 614 440 614 372 614 c 2,28,-1
 178 614 l 1,29,-1
 178 380 l 1,22,-1
EndSplineSet
EndChar

StartChar: trademark
Encoding: 336 8482 336
Width: 782
Flags: W
LayerCount: 2
Fore
SplineSet
20 636 m 1,0,-1
 20 690 l 1,1,-1
 304 690 l 1,2,-1
 304 636 l 1,3,-1
 192 636 l 1,4,-1
 192 340 l 1,5,-1
 132 340 l 1,6,-1
 132 636 l 1,7,-1
 20 636 l 1,0,-1
354 340 m 1,8,-1
 354 690 l 1,9,-1
 429 690 l 1,10,-1
 538 457 l 1,11,-1
 647 690 l 1,12,-1
 722 690 l 1,13,-1
 722 340 l 1,14,-1
 662 340 l 1,15,-1
 662 591 l 1,16,-1
 565 384 l 1,17,-1
 511 384 l 1,18,-1
 414 591 l 1,19,-1
 414 340 l 1,20,-1
 354 340 l 1,8,-1
EndSplineSet
EndChar

StartChar: Omega
Encoding: 337 8486 337
Width: 700
Flags: W
LayerCount: 2
Fore
SplineSet
60 0 m 1,0,-1
 60 76 l 1,1,-1
 188 76 l 1,2,-1
 113 176 l 2,3,4
 80 220 80 220 80 276 c 2,5,-1
 80 537 l 2,6,7
 80 690 80 690 233 690 c 2,8,-1
 467 690 l 2,9,10
 620 690 620 690 620 537 c 2,11,-1
 620 276 l 2,12,13
 620 220 620 220 587 176 c 2,14,-1
 512 76 l 1,15,-1
 640 76 l 1,16,-1
 640 0 l 1,17,-1
 410 0 l 1,18,-1
 410 68 l 1,19,-1
 512 204 l 2,20,21
 536 236 536 236 536 276 c 2,22,-1
 536 546 l 2,23,24
 536 614 536 614 468 614 c 2,25,-1
 232 614 l 2,26,27
 164 614 164 614 164 546 c 2,28,-1
 164 276 l 2,29,30
 164 236 164 236 188 204 c 2,31,-1
 290 68 l 1,32,-1
 290 0 l 1,33,-1
 60 0 l 1,0,-1
EndSplineSet
EndChar

StartChar: estimated
Encoding: 338 8494 338
Width: 880
Flags: W
LayerCount: 2
Fore
SplineSet
60 345 m 128,-1,1
 60 494 60 494 171.5 599.5 c 128,-1,2
 283 705 283 705 440 705 c 128,-1,3
 597 705 597 705 708.5 599.5 c 128,-1,4
 820 494 820 494 820 325 c 1,5,-1
 200 325 l 1,6,-1
 200 127 l 1,7,8
 305 25 305 25 440 25 c 128,-1,9
 575 25 575 25 687 133 c 1,10,-1
 719 100 l 1,11,12
 597 -15 597 -15 440 -15 c 128,-1,13
 283 -15 283 -15 171.5 90.5 c 128,-1,0
 60 196 60 196 60 345 c 128,-1,1
200 365 m 1,14,-1
 680 365 l 1,15,-1
 680 563 l 1,16,17
 575 665 575 665 440 665 c 128,-1,18
 305 665 305 665 200 563 c 1,19,-1
 200 365 l 1,14,-1
EndSplineSet
EndChar

StartChar: partialdiff
Encoding: 339 8706 339
Width: 578
Flags: W
LayerCount: 2
Fore
SplineSet
72 150 m 2,0,-1
 72 310 l 2,1,2
 72 460 72 460 222 460 c 2,3,-1
 422 460 l 1,4,-1
 422 528 l 2,5,6
 422 670 422 670 280 670 c 2,7,-1
 116 670 l 1,8,-1
 116 710 l 1,9,-1
 156 740 l 1,10,-1
 278 740 l 2,11,12
 502 740 502 740 502 516 c 2,13,-1
 502 150 l 2,14,15
 502 0 502 0 352 0 c 2,16,-1
 222 0 l 2,17,18
 72 0 72 0 72 150 c 2,0,-1
152 140 m 2,19,20
 152 70 152 70 222 70 c 2,21,-1
 352 70 l 2,22,23
 422 70 422 70 422 140 c 2,24,-1
 422 390 l 1,25,-1
 222 390 l 2,26,27
 152 390 152 390 152 320 c 2,28,-1
 152 140 l 2,19,20
EndSplineSet
EndChar

StartChar: Delta
Encoding: 340 8710 340
Width: 640
Flags: W
LayerCount: 2
Fore
SplineSet
20 18 m 1,0,-1
 251 690 l 1,1,-1
 389 690 l 1,2,-1
 620 18 l 1,3,-1
 608 0 l 1,4,-1
 32 0 l 1,5,-1
 20 18 l 1,0,-1
125 76 m 1,6,-1
 515 76 l 1,7,-1
 332 614 l 1,8,-1
 308 614 l 1,9,-1
 125 76 l 1,6,-1
EndSplineSet
EndChar

StartChar: product
Encoding: 341 8719 341
Width: 700
Flags: W
LayerCount: 2
Fore
SplineSet
90 -100 m 1,0,-1
 90 690 l 1,1,-1
 610 690 l 1,2,-1
 610 -100 l 1,3,-1
 526 -100 l 1,4,-1
 526 614 l 1,5,-1
 174 614 l 1,6,-1
 174 -100 l 1,7,-1
 90 -100 l 1,0,-1
EndSplineSet
EndChar

StartChar: summation
Encoding: 342 8721 342
Width: 580
Flags: W
LayerCount: 2
Fore
SplineSet
50 -33 m 1,0,-1
 280 295 l 1,1,-1
 50 623 l 1,2,-1
 50 690 l 1,3,-1
 530 690 l 1,4,-1
 530 614 l 1,5,-1
 152 614 l 1,6,-1
 375 295 l 1,7,-1
 152 -24 l 1,8,-1
 530 -24 l 1,9,-1
 530 -100 l 1,10,-1
 50 -100 l 1,11,-1
 50 -33 l 1,0,-1
EndSplineSet
EndChar

StartChar: minus
Encoding: 343 8722 343
Width: 578
Flags: W
LayerCount: 2
Fore
SplineSet
64 300 m 1,0,-1
 64 370 l 1,1,-1
 514 370 l 1,2,-1
 514 300 l 1,3,-1
 64 300 l 1,0,-1
EndSplineSet
EndChar

StartChar: radical
Encoding: 346 8730 346
Width: 580
Flags: W
LayerCount: 2
Fore
SplineSet
20 336 m 1,0,-1
 20 400 l 1,1,-1
 167 400 l 1,2,-1
 273 84 l 1,3,-1
 517 790 l 1,4,-1
 580 768 l 1,5,-1
 308 -10 l 1,6,-1
 234 -10 l 1,7,-1
 115 336 l 1,8,-1
 20 336 l 1,0,-1
EndSplineSet
EndChar

StartChar: infinity
Encoding: 347 8734 347
Width: 610
Flags: W
LayerCount: 2
Fore
SplineSet
40 285 m 2,0,-1
 40 385 l 2,1,2
 40 485 40 485 140 485 c 2,3,-1
 238 485 l 2,4,5
 265 485 265 485 282 468 c 2,6,-1
 305 445 l 1,7,-1
 328 468 l 2,8,9
 345 485 345 485 372 485 c 2,10,-1
 470 485 l 2,11,12
 570 485 570 485 570 385 c 2,13,-1
 570 285 l 2,14,15
 570 185 570 185 470 185 c 2,16,-1
 372 185 l 2,17,18
 345 185 345 185 328 202 c 2,19,-1
 305 225 l 1,20,-1
 282 202 l 2,21,22
 265 185 265 185 238 185 c 2,23,-1
 140 185 l 2,24,25
 40 185 40 185 40 285 c 2,0,-1
104 275 m 2,26,27
 104 243 104 243 136 243 c 2,28,-1
 241 243 l 2,29,30
 273 243 273 243 273 275 c 2,31,-1
 273 395 l 2,32,33
 273 427 273 427 241 427 c 2,34,-1
 136 427 l 2,35,36
 104 427 104 427 104 395 c 2,37,-1
 104 275 l 2,26,27
337 275 m 2,38,39
 337 243 337 243 369 243 c 2,40,-1
 474 243 l 2,41,42
 506 243 506 243 506 275 c 2,43,-1
 506 395 l 2,44,45
 506 427 506 427 474 427 c 2,46,-1
 369 427 l 2,47,48
 337 427 337 427 337 395 c 2,49,-1
 337 275 l 2,38,39
EndSplineSet
EndChar

StartChar: integral
Encoding: 348 8747 348
Width: 420
Flags: W
LayerCount: 2
Fore
SplineSet
20 -130 m 1,0,-1
 100 -130 l 2,1,2
 170 -130 170 -130 170 -60 c 2,3,-1
 170 590 l 2,4,5
 170 740 170 740 320 740 c 2,6,-1
 360 740 l 1,7,-1
 400 710 l 1,8,-1
 400 670 l 1,9,-1
 320 670 l 2,10,11
 250 670 250 670 250 600 c 2,12,-1
 250 -50 l 2,13,14
 250 -200 250 -200 100 -200 c 2,15,-1
 60 -200 l 1,16,-1
 20 -170 l 1,17,-1
 20 -130 l 1,0,-1
EndSplineSet
EndChar

StartChar: notequal
Encoding: 350 8800 350
Width: 578
Flags: W
LayerCount: 2
Fore
SplineSet
64 190 m 1,0,-1
 64 260 l 1,1,-1
 215 260 l 1,2,-1
 291 410 l 1,3,-1
 64 410 l 1,4,-1
 64 480 l 1,5,-1
 327 480 l 1,6,-1
 390 605 l 1,7,-1
 447 576 l 1,8,-1
 399 480 l 1,9,-1
 514 480 l 1,10,-1
 514 410 l 1,11,-1
 363 410 l 1,12,-1
 287 260 l 1,13,-1
 514 260 l 1,14,-1
 514 190 l 1,15,-1
 251 190 l 1,16,-1
 188 65 l 1,17,-1
 131 94 l 1,18,-1
 179 190 l 1,19,-1
 64 190 l 1,0,-1
EndSplineSet
EndChar

StartChar: lessequal
Encoding: 351 8804 351
Width: 578
Flags: W
LayerCount: 2
Fore
SplineSet
64 0 m 1,0,-1
 64 70 l 1,1,-1
 514 70 l 1,2,-1
 514 0 l 1,3,-1
 64 0 l 1,0,-1
64 316 m 1,4,-1
 64 394 l 1,5,-1
 484 595 l 1,6,-1
 514 532 l 1,7,-1
 136 355 l 1,8,-1
 514 178 l 1,9,-1
 484 115 l 1,10,-1
 64 316 l 1,4,-1
EndSplineSet
EndChar

StartChar: greaterequal
Encoding: 352 8805 352
Width: 578
Flags: W
LayerCount: 2
Fore
SplineSet
64 0 m 1,0,-1
 64 70 l 1,1,-1
 514 70 l 1,2,-1
 514 0 l 1,3,-1
 64 0 l 1,0,-1
64 178 m 1,4,-1
 442 355 l 1,5,-1
 64 532 l 1,6,-1
 94 595 l 1,7,-1
 514 394 l 1,8,-1
 514 316 l 1,9,-1
 94 115 l 1,10,-1
 64 178 l 1,4,-1
EndSplineSet
EndChar

StartChar: lozenge
Encoding: 353 9674 353
Width: 578
Flags: W
LayerCount: 2
Fore
SplineSet
54 345 m 1,0,-1
 252 690 l 1,1,-1
 326 690 l 1,2,-1
 524 345 l 1,3,-1
 326 0 l 1,4,-1
 252 0 l 1,5,-1
 54 345 l 1,0,-1
128 345 m 1,6,-1
 289 64 l 1,7,-1
 450 345 l 1,8,-1
 289 626 l 1,9,-1
 128 345 l 1,6,-1
EndSplineSet
EndChar

StartChar: uniF000
Encoding: 354 61440 354
Width: 700
Flags: W
LayerCount: 2
Fore
SplineSet
50 605 m 1,0,-1
 650 605 l 1,1,-1
 350 85 l 1,2,-1
 50 605 l 1,0,-1
EndSplineSet
EndChar

StartChar: .notdef
Encoding: 357 -1 357
Width: 586
Flags: W
LayerCount: 2
Fore
SplineSet
93 0 m 1,0,-1
 93 740 l 1,1,-1
 493 740 l 1,2,-1
 493 0 l 1,3,-1
 93 0 l 1,0,-1
143 50 m 1,4,-1
 443 50 l 1,5,-1
 443 690 l 1,6,-1
 143 690 l 1,7,-1
 143 50 l 1,4,-1
EndSplineSet
EndChar

StartChar: uni030C.alt
Encoding: 358 -1 358
Width: 0
Flags: W
LayerCount: 2
Fore
SplineSet
-52 592 m 1,0,-1
 -18 760 l 1,1,-1
 43 760 l 1,2,-1
 52 746 l 1,3,-1
 -3 580 l 1,4,-1
 -52 592 l 1,0,-1
EndSplineSet
EndChar

StartChar: uni0326.alt
Encoding: 359 -1 359
Width: 0
Flags: W
LayerCount: 2
Fore
SplineSet
-32 608 m 1,0,-1
 24 744 l 1,1,-1
 80 728 l 1,2,-1
 48 594 l 1,3,-1
 -23 594 l 1,4,-1
 -32 608 l 1,0,-1
EndSplineSet
EndChar

StartChar: uni0300.cap
Encoding: 360 -1 360
Width: 0
Flags: W
LayerCount: 2
Fore
SplineSet
-438 869 m 1,0,-1
 -386 918 l 1,1,-1
 -258 773 l 1,2,-1
 -301 732 l 1,3,-1
 -438 869 l 1,0,-1
EndSplineSet
EndChar

StartChar: uni0301.cap
Encoding: 361 -1 361
Width: 0
Flags: W
LayerCount: 2
Fore
SplineSet
-382 773 m 1,0,-1
 -254 918 l 1,1,-1
 -202 869 l 1,2,-1
 -339 732 l 1,3,-1
 -382 773 l 1,0,-1
EndSplineSet
EndChar

StartChar: uni0302.cap
Encoding: 362 -1 362
Width: 0
Flags: W
LayerCount: 2
Fore
SplineSet
-458 783 m 1,0,-1
 -320 918 l 1,1,-1
 -182 783 l 1,2,-1
 -221 742 l 1,3,-1
 -320 836 l 1,4,-1
 -419 742 l 1,5,-1
 -458 783 l 1,0,-1
EndSplineSet
EndChar

StartChar: uni0303.cap
Encoding: 363 -1 363
Width: 0
Flags: W
LayerCount: 2
Fore
SplineSet
-475 798 m 1,0,-1
 -421 852 l 2,1,2
 -399 874 -399 874 -370 874 c 128,-1,3
 -341 874 -341 874 -319 852 c 2,4,-1
 -287 820 l 2,5,6
 -279 812 -279 812 -270 812 c 128,-1,7
 -261 812 -261 812 -253 820 c 2,8,-1
 -204 869 l 1,9,-1
 -165 830 l 1,10,-1
 -219 776 l 2,11,12
 -241 754 -241 754 -270 754 c 128,-1,13
 -299 754 -299 754 -321 776 c 2,14,-1
 -353 808 l 2,15,16
 -361 816 -361 816 -370 816 c 128,-1,17
 -379 816 -379 816 -387 808 c 2,18,-1
 -436 759 l 1,19,-1
 -475 798 l 1,0,-1
EndSplineSet
EndChar

StartChar: uni0304.cap
Encoding: 364 -1 364
Width: 0
Flags: W
LayerCount: 2
Fore
SplineSet
-450 785 m 1,0,-1
 -450 849 l 1,1,-1
 -190 849 l 1,2,-1
 -190 785 l 1,3,-1
 -450 785 l 1,0,-1
EndSplineSet
EndChar

StartChar: uni0306.cap
Encoding: 365 -1 365
Width: 0
Flags: W
LayerCount: 2
Fore
SplineSet
-445 830 m 2,0,-1
 -445 888 l 1,1,-1
 -391 888 l 1,2,-1
 -391 830 l 2,3,4
 -391 812 -391 812 -373 812 c 2,5,-1
 -267 812 l 2,6,7
 -249 812 -249 812 -249 830 c 2,8,-1
 -249 888 l 1,9,-1
 -195 888 l 1,10,-1
 -195 830 l 2,11,12
 -195 758 -195 758 -267 758 c 2,13,-1
 -373 758 l 2,14,15
 -445 758 -445 758 -445 830 c 2,0,-1
EndSplineSet
EndChar

StartChar: uni0307.cap
Encoding: 366 -1 366
Width: 0
Flags: W
LayerCount: 2
Fore
SplineSet
-362 774 m 1,0,-1
 -362 866 l 1,1,-1
 -278 866 l 1,2,-1
 -278 774 l 1,3,-1
 -362 774 l 1,0,-1
EndSplineSet
EndChar

StartChar: uni0308.cap
Encoding: 367 -1 367
Width: 0
Flags: W
LayerCount: 2
Fore
SplineSet
-450 774 m 1,0,-1
 -450 862 l 1,1,-1
 -370 862 l 1,2,-1
 -370 774 l 1,3,-1
 -450 774 l 1,0,-1
-270 774 m 1,4,-1
 -270 862 l 1,5,-1
 -190 862 l 1,6,-1
 -190 774 l 1,7,-1
 -270 774 l 1,4,-1
EndSplineSet
EndChar

StartChar: uni030A.cap
Encoding: 368 -1 368
Width: 0
Flags: W
LayerCount: 2
Fore
SplineSet
-422 802 m 2,0,-1
 -422 858 l 2,1,2
 -422 928 -422 928 -352 928 c 2,3,-1
 -288 928 l 2,4,5
 -218 928 -218 928 -218 858 c 2,6,-1
 -218 802 l 2,7,8
 -218 732 -218 732 -288 732 c 2,9,-1
 -352 732 l 2,10,11
 -422 732 -422 732 -422 802 c 2,0,-1
-370 798 m 2,12,13
 -370 778 -370 778 -350 778 c 2,14,-1
 -290 778 l 2,15,16
 -270 778 -270 778 -270 798 c 2,17,-1
 -270 862 l 2,18,19
 -270 882 -270 882 -290 882 c 2,20,-1
 -350 882 l 2,21,22
 -370 882 -370 882 -370 862 c 2,23,-1
 -370 798 l 2,12,13
EndSplineSet
EndChar

StartChar: uni030B.cap
Encoding: 369 -1 369
Width: 0
Flags: W
LayerCount: 2
Fore
SplineSet
-448 769 m 1,0,-1
 -336 918 l 1,1,-1
 -282 874 l 1,2,-1
 -404 732 l 1,3,-1
 -448 769 l 1,0,-1
-283 769 m 1,4,-1
 -171 918 l 1,5,-1
 -117 874 l 1,6,-1
 -239 732 l 1,7,-1
 -283 769 l 1,4,-1
EndSplineSet
EndChar

StartChar: uni030C.cap
Encoding: 370 -1 370
Width: 0
Flags: W
LayerCount: 2
Fore
SplineSet
-458 867 m 1,0,-1
 -419 908 l 1,1,-1
 -320 814 l 1,2,-1
 -221 908 l 1,3,-1
 -182 867 l 1,4,-1
 -320 732 l 1,5,-1
 -458 867 l 1,0,-1
EndSplineSet
EndChar

StartChar: zero.zero
Encoding: 371 -1 371
Width: 578
Flags: W
LayerCount: 2
Fore
SplineSet
64 153 m 2,0,-1
 64 537 l 2,1,2
 64 690 64 690 217 690 c 2,3,-1
 361 690 l 2,4,5
 514 690 514 690 514 537 c 2,6,-1
 514 153 l 2,7,8
 514 0 514 0 361 0 c 2,9,-1
 217 0 l 2,10,11
 64 0 64 0 64 153 c 2,0,-1
148 144 m 2,12,13
 148 76 148 76 216 76 c 2,14,-1
 362 76 l 2,15,16
 430 76 430 76 430 144 c 2,17,-1
 430 546 l 2,18,19
 430 614 430 614 362 614 c 2,20,-1
 216 614 l 2,21,22
 148 614 148 614 148 546 c 2,23,-1
 148 144 l 2,12,13
243 285 m 1,24,-1
 243 405 l 1,25,-1
 335 405 l 1,26,-1
 335 285 l 1,27,-1
 243 285 l 1,24,-1
EndSplineSet
EndChar

